<svg xmlns="http://www.w3.org/2000/svg" width="16" height="16" version="1.1">
 <defs>
  <style id="current-color-scheme" type="text/css">
   .ColorScheme-Text { color:#cdd6f4; } .ColorScheme-Highlight { color:#4285f4; } .ColorScheme-NeutralText { color:#ff9800; } .ColorScheme-PositiveText { color:#4caf50; } .ColorScheme-NegativeText { color:#f44336; }
  </style>
 </defs>
     <path style="fill:currentColor" class="ColorScheme-Text" d="m 4 0 c -0.550781 0 -1 0.449219 -1 1 v 14 c 0 0.550781 0.449219 1 1 1 s 1 -0.449219 1 -1 v -14 c 0 -0.550781 -0.449219 -1 -1 -1 z m 7.84375 1.011719 c -0.207031 0.03125 -0.402344 0.128906 -0.550781 0.28125 l -6 6 c -0.1875 0.1875 -0.292969 0.441406 -0.292969 0.707031 s 0.105469 0.519531 0.292969 0.707031 l 6 6 c 0.390625 0.390625 1.023437 0.390625 1.414062 0 c 0.1875 -0.1875 0.292969 -0.441406 0.292969 -0.707031 s -0.105469 -0.519531 -0.292969 -0.707031 l -5.292969 -5.292969 l 5.292969 -5.292969 c 0.1875 -0.1875 0.292969 -0.441406 0.292969 -0.707031 s -0.105469 -0.519531 -0.292969 -0.707031 c -0.226562 -0.226563 -0.546875 -0.332031 -0.863281 -0.28125 z m 0 0" fill="#cdd6f4"/>
</svg>
