<svg height="16" viewBox="0 0 16 16" width="16" xmlns="http://www.w3.org/2000/svg"><path d="M 13.443753,0.25889892 V 1.2213689 H 12.513982 V 11.342209 h 3.456325 V 1.2213689 H 15.040535 V 0.25889892 Z M 0.0894002,4.7923025 V 8.4335052 H 9.696369 V 7.4540003 h 0.913602 V 5.7718073 H 9.696369 V 4.7923025 Z m 3.068247,7.5421865 a 1.7200361,1.8120398 0 0 0 -1.7200778,1.812085 1.7200361,1.8120398 0 0 0 1.7200778,1.812083 1.7200361,1.8120398 0 0 0 1.720078,-1.812083 1.7200361,1.8120398 0 0 0 -1.720078,-1.812085 z m 5.1319358,0 a 1.7200361,1.8120398 0 0 0 -1.7200775,1.812085 1.7200361,1.8120398 0 0 0 1.7200775,1.812083 1.7200361,1.8120398 0 0 0 1.720078,-1.812083 1.7200361,1.8120398 0 0 0 -1.720078,-1.812085 z m 5.131937,0 a 1.7200361,1.8120398 0 0 0 -1.720078,1.812085 1.7200361,1.8120398 0 0 0 1.720078,1.812083 1.7200361,1.8120398 0 0 0 1.720078,-1.812083 1.7200361,1.8120398 0 0 0 -1.720078,-1.812085 z" fill="#2e3436" stroke-width=".886076"/></svg>
