<svg height="16" viewBox="0 0 16 16" width="16" xmlns="http://www.w3.org/2000/svg"><path d="M 13.898438 3.8691406 C 12.899738 3.8691406 11.922528 4.0362406 10.923828 4.3691406 C 9.2385221 4.9517156 8.1761062 5.9927008 8.4257812 7.3867188 L 8.6757812 8.71875 C 8.8006182 9.530194 9.4676099 9.8828125 10.091797 9.8828125 C 11.028078 9.8828125 11.713325 9.0722394 11.546875 8.0527344 L 11.236328 6.2207031 C 11.194718 5.9710281 11.276392 5.8045245 11.546875 5.6796875 C 12.171062 5.3884005 12.775769 5.2224943 13.566406 5.0976562 C 14.044949 5.0352382 14.292969 4.6601836 14.292969 4.1816406 C 14.292969 3.9735776 14.189724 3.8691406 13.898438 3.8691406 z M 2.1425781 3.890625 C 1.8304841 3.890625 1.7480469 3.995062 1.7480469 4.203125 C 1.7480469 4.681668 1.9980185 5.0359156 2.4765625 5.1191406 C 3.2671995 5.2439776 3.8491476 5.3890789 4.4941406 5.7011719 C 4.7438156 5.8260099 4.8475743 5.9925125 4.7851562 6.2421875 L 4.4726562 8.0527344 C 4.3062062 9.0930464 5.0148909 9.8828125 5.9511719 9.8828125 C 6.5545529 9.8828125 7.2195904 9.5081123 7.3652344 8.7382812 L 7.6152344 7.40625 C 7.8649084 6.012232 6.8252516 4.9732 5.1191406 4.390625 C 4.1204406 4.036919 3.1412781 3.890625 2.1425781 3.890625 z M 11.818359 6.8457031 L 12.005859 7.9472656 C 12.193115 9.2580596 11.319366 10.339844 10.091797 10.339844 C 9.3843849 10.339844 8.7593596 9.9868719 8.4472656 9.4042969 C 8.5512966 10.943959 9.9460697 11.714844 11.527344 11.714844 C 11.943469 11.714844 12.255587 11.672311 12.546875 11.505859 C 13.150256 10.465547 13.565457 9.3636904 13.835938 8.1777344 C 13.523844 7.5327414 12.817059 7.1161841 11.818359 6.8457031 z M 4.2246094 6.8652344 C 3.2259094 7.1149094 2.5171711 7.5522726 2.2050781 8.1972656 C 2.4755591 9.3832216 2.8927128 10.466226 3.4960938 11.527344 C 3.7873808 11.672988 4.099501 11.734375 4.515625 11.734375 C 6.0969 11.734375 7.510525 10.965442 7.59375 9.4257812 C 7.281657 9.9875493 6.6585839 10.339844 5.9511719 10.339844 C 4.7027979 10.339844 3.8290474 9.258737 4.0371094 7.96875 L 4.2246094 6.8652344 z M 1.7265625 8.2597656 C 0.8735065 8.3429906 2.9605947e-16 9.0515659 0 10.154297 C 0 11.340253 0.7906065 12.130859 1.9765625 12.130859 C 2.4342995 12.130859 2.8714187 11.963325 3.1210938 11.796875 C 2.4761007 10.694144 2.0178495 9.5289466 1.7265625 8.2597656 z M 14.273438 8.2597656 C 13.98215 9.5081406 13.523899 10.694144 12.878906 11.796875 C 13.128581 11.984131 13.565701 12.130859 14.023438 12.130859 C 15.2302 12.130859 16 11.340253 16 10.154297 C 16 9.0723719 15.147299 8.3429906 14.273438 8.2597656 z" fill="#2e3436" stroke-width=".9375"/></svg>
