<svg height="16" viewBox="0 0 16 16" width="16" xmlns="http://www.w3.org/2000/svg"><path d="M 4.7032577,4.3736945 C 4.2271559,4.3717353 3.7714134,4.6575853 3.5705431,5.1427166 L 2.684491,7.2081139 C 2.4166633,7.83409 2.7054157,8.56456 3.3234783,8.8358165 3.9415415,9.1070733 4.6623757,8.7942461 4.9302028,8.1682708 L 5.8367774,6.1024662 C 6.1046041,5.4764901 5.8163358,4.7460199 5.1776699,4.4747635 5.0231538,4.4069495 4.8619582,4.3743464 4.7032577,4.3736945 Z m 6.6111893,0 c -0.15709,6.519e-4 -0.316677,0.033255 -0.471193,0.1010692 -0.618063,0.2712564 -0.9273358,1.0225924 -0.659509,1.6277027 l 0.906574,2.0658046 c 0.247225,0.6259756 0.947537,0.9388025 1.586203,0.6675457 0.618062,-0.2712565 0.927336,-1.0017265 0.659508,-1.6277026 L 12.449978,5.1427166 C 12.233656,4.6575853 11.78572,4.3717382 11.314447,4.3736945 Z M 6.3313082,5.9561605 C 6.310706,6.0604896 6.2695025,6.1651456 6.2282983,6.2903407 L 5.3217236,8.3557378 C 4.9508859,9.1903728 3.9826653,9.5870691 3.1379788,9.23235 2.313895,8.8567643 1.9223733,7.9384193 2.2314051,7.1037845 1.8193626,7.6045652 1.7368737,8.3560646 2.0459054,9.2115649 2.6021621,10.776506 4.0238718,11.089252 5.404213,10.525872 L 6.2488195,10.192099 C 7.4025374,9.7539158 7.9381127,8.6687246 7.6084791,7.5211023 7.3818564,6.7490649 6.8051571,6.3734779 6.3313082,5.9561605 Z m 3.357906,0.021191 C 9.1741608,6.3738034 8.6181444,6.7490646 8.3915206,7.5211019 8.0618872,8.6687242 8.5974624,9.7538341 9.7511806,10.212883 l 0.8446064,0.333774 c 1.400942,0.542512 2.802051,0.250634 3.358308,-1.3143073 0.309031,-0.8555008 0.205939,-1.6065927 -0.1855,-2.1073737 0.309031,0.8346347 -0.0825,1.7525719 -0.906574,2.1281576 -0.824084,0.3547202 -1.792386,-0.04157 -2.163224,-0.8762042 L 9.7922234,6.3111249 C 9.7510199,6.2067953 9.7098154,6.1025472 9.6892142,5.9773515 Z m 4.8004548,1.6692713 c 0.10301,0.5842443 0.06197,1.1474613 -0.144053,1.7108402 -0.309031,0.876367 -0.906495,1.481643 -1.64817,1.732033 0.350235,0.312988 0.78272,0.479671 1.27717,0.479671 1.07131,0 1.957202,-0.897153 1.957202,-2.0030453 0,-0.9180983 -0.618065,-1.6899743 -1.442149,-1.9194989 z M 1.5103304,7.6674073 C 0.68624609,7.8969318 0.06818172,8.6688084 0.06818172,9.5869056 c 0,1.1058924 0.8652903,2.0030454 1.95720198,2.0030454 0.4944508,0 0.9475372,-0.187549 1.2771708,-0.479671 C 2.5608785,10.839024 1.9840182,10.254695 1.6543846,9.357463 1.4483634,8.7732186 1.4073198,8.20992 1.5103304,7.6674073 Z" fill="#2e3436"/></svg>
