<svg height="16" viewBox="0 0 16 16" width="16" xmlns="http://www.w3.org/2000/svg"><path d="M 10.451172 2 C 8.9966829 2 7.5716766 2.2114325 6.1171875 2.7265625 C 3.6324413 3.5750094 2.1187994 5.0908692 2.4824219 7.1210938 L 2.8457031 9.0605469 C 3.0578172 10.181718 4.0274872 10.726562 4.90625 10.726562 C 6.2698268 10.726563 7.2990593 9.5756435 7.0566406 8.0605469 L 6.6035156 5.4238281 C 6.5126034 5.0602169 6.6637213 4.818529 7.0273438 4.6367188 C 7.9667029 4.1821963 8.8153237 3.9689206 9.9667969 3.7871094 C 10.663738 3.6659065 11.027344 3.1520175 11.027344 2.4550781 C 11.027344 2.1520631 10.905693 2 10.451172 2 z M 7.4199219 6.3339844 L 7.6933594 7.9394531 C 7.9963744 9.8181712 6.7243484 11.394531 4.90625 11.394531 C 3.8759797 11.394531 2.9662515 10.87869 2.5117188 10.060547 C 2.6329338 12.302874 4.6931578 13.423828 6.9960938 13.423828 C 7.6021351 13.423828 8.0562397 13.333208 8.4804688 13.121094 C 9.3592204 11.575705 9.9654502 10.000638 10.359375 8.2734375 C 9.9048436 7.3340794 8.874411 6.6976078 7.4199219 6.3339844 z M 11.056641 8.3632812 C 10.632412 10.211684 9.9666916 11.909628 9.0273438 13.515625 C 9.3909558 13.758043 10.026723 14 10.693359 14 C 12.42057 14 13.572266 12.848295 13.572266 11.121094 C 13.572266 9.5150977 12.299014 8.484485 11.056641 8.3632812 z" fill="#2e3436" stroke-width=".9375"/></svg>
