<svg height="16" viewBox="0 0 16 16" width="16" xmlns="http://www.w3.org/2000/svg"><path d="m2.9728212.2395955c-1.6194027 0-2.92307115 1.3036685-2.92307115 2.923071v9.6745885c0 1.619402 1.30366845 2.92315 2.92307115 2.92315h10.0543578c1.619403 0 2.923071-1.303748 2.923071-2.92315v-9.6745885c0-1.6194025-1.303668-2.923071-2.923071-2.923071zm9.9021678 11.4165375a1.0477607 1.0477607 0 0 1 1.047758 1.047759 1.0477607 1.0477607 0 0 1 -1.047758 1.047759 1.0477607 1.0477607 0 0 1 -1.047759-1.047759 1.0477607 1.0477607 0 0 1 1.047759-1.047759z" fill="#2e3436"/></svg>
