<svg height="16" viewBox="0 0 16 16" width="16" xmlns="http://www.w3.org/2000/svg"><g transform="matrix(-1.2975161 0 0 1.2975161 21.2618 -.468068)"><path d="m79.925405 20.466836.08387.629034a80.407272 28.667609 76.621931 0 0 -1.300002 78.335634 80.407272 28.667609 76.621931 0 0 16.459709 45.122666 80.407272 28.667609 76.621931 0 0 .02097.021c-.05368-.005-.113314-.0156-.167743-.021-19.842176-1.92497-33.904903-32.29038-33.904903-32.29038s-12.7445-25.613958-13.188735-55.229142c-.443452-29.56295 31.882804-36.543281 31.996835-36.567812zm40.635565 3.732265a12.669538 22.805166 0 0 1 12.66454 22.791979 12.669538 22.805166 0 0 1 -12.66454 22.812947 12.669538 22.805166 0 0 1 -12.68551-22.812947 12.669538 22.805166 0 0 1 12.68551-22.791979z" transform="matrix(-.09314886 0 0 .09314886 18.657851 -1.160369)"/><path d="m10.275983.84043637s-.0197.0238855-.05664.0683594c-.206375-.0007361-1.0848097.0255101-1.2929685.52929693a1.3219185 2.379453 0 0 1 .5039062 1.8691406 1.3219185 2.379453 0 0 1 -1.2539062 2.375c.4363866 1.5658183-.990234 3.4902349-.990234 3.4902339 0 0-.9939521 1.9995558.095703 2.7167968 1.0896552.717241 1.8359375-.220703 1.8359375-.220703s.6743535-.48257 1.28125-2.9101558c.606897-2.4275867.634766-2.8554553.634766-4.6347656 0-1.7793104-.757813-3.28320323-.757814-3.28320323z" fill-opacity=".456306"/></g></svg>