<svg height="16" viewBox="0 0 16 16.000001" width="16" xmlns="http://www.w3.org/2000/svg"><path d="m8.0000002.04999987a7.9500317 7.9500317 0 0 0 -7.95000033 7.95000033 7.9500317 7.9500317 0 0 0 7.95000033 7.9500008 7.9500317 7.9500317 0 0 0 7.9500008-7.9500008 7.9500317 7.9500317 0 0 0 -7.9500008-7.95000033zm-2.6270776 6.68383353a1.2661481 1.2661481 0 0 1 1.2662562 1.2661668 1.2661481 1.2661481 0 0 1 -1.2662562 1.2661668 1.2661481 1.2661481 0 0 1 -1.2661569-1.2661668 1.2661481 1.2661481 0 0 1 1.2661569-1.2661668zm5.2540664 0a1.2661481 1.2661481 0 0 1 1.266246 1.2661668 1.2661481 1.2661481 0 0 1 -1.266246 1.2661668 1.2661481 1.2661481 0 0 1 -1.2661574-1.2661668 1.2661481 1.2661481 0 0 1 1.2661574-1.2661668z" fill="#2e3436"/></svg>
