<svg height="16" viewBox="0 0 16 16" width="16" xmlns="http://www.w3.org/2000/svg"><path d="M 5.5488281 2 C 5.0943065 2 4.9726563 2.1520631 4.9726562 2.4550781 C 4.9726562 3.1520175 5.3362619 3.6659065 6.0332031 3.7871094 C 7.1846762 3.9689206 8.0332971 4.1821962 8.9726562 4.6367188 C 9.3362787 4.8185291 9.4873966 5.0602169 9.3964844 5.4238281 L 8.9433594 8.0605469 C 8.7009406 9.5756435 9.7301724 10.726563 11.09375 10.726562 C 11.972513 10.726562 12.942183 10.181718 13.154297 9.0605469 L 13.517578 7.1210938 C 13.8812 5.0908692 12.36756 3.5750094 9.8828125 2.7265625 C 8.4283235 2.2114325 7.0033172 2 5.5488281 2 z M 8.5800781 6.3339844 C 7.125589 6.6976078 6.0951568 7.3340794 5.640625 8.2734375 C 6.0345503 10.000638 6.6407796 11.575705 7.5195312 13.121094 C 7.9437603 13.333208 8.3978649 13.423828 9.0039062 13.423828 C 11.306842 13.423828 13.367066 12.302874 13.488281 10.060547 C 13.033748 10.87869 12.12402 11.394531 11.09375 11.394531 C 9.2756509 11.394531 8.0036256 9.8181712 8.3066406 7.9394531 L 8.5800781 6.3339844 z M 4.9433594 8.3632812 C 3.7009863 8.484485 2.4277344 9.5150977 2.4277344 11.121094 C 2.4277344 12.848295 3.5794299 14 5.3066406 14 C 5.9732771 14 6.6090441 13.758043 6.9726562 13.515625 C 6.0333084 11.909628 5.3675885 10.211684 4.9433594 8.3632812 z" fill="#2e3436" stroke-width=".9375"/></svg>
