<svg xmlns="http://www.w3.org/2000/svg" xml:space="preserve" viewBox="0 0 1644 1644" fill-rule="evenodd" clip-rule="evenodd" fill="#000">
    <path d="M1292 175q3 28 3 66c1 18-1 60-13 70-3 4-17 8-23 9-18 1-36-9-45-20q12-1 20-6c7 4 12 11 25 8 7-1 14-10 17-18 8-22 1-61-1-85-25 5-63 10-82 25-6 5-12 15-12 22 2 13 10 15 16 21v21c-13-5-28-19-32-37-2-6-2-20 0-25 6-14 46-29 63-34q37-11 64-17m177 177q-6 28-17 63c-5 18-20 57-35 64-4 1-18 2-24 0-18-4-32-19-37-32q11 2 21 0c6 6 8 14 21 16q12-1 22-12c15-19 20-58 25-82-24-3-63-9-86-1-7 3-16 10-17 17-3 13 4 17 8 25q-4 9-6 20c-11-9-21-27-20-45 1-6 5-20 9-23 10-12 52-14 70-13q38 0 66 3m114 223-37 55c-10 15-36 48-52 49-4 1-18-3-23-6a55 55 0 0 1-25-42q11 5 20 6c3 8 3 16 15 21 6 3 17 0 24-4 20-13 37-49 49-70-22-10-57-29-81-27-8 0-18 4-22 10-6 11-1 18 1 26q-8 7-13 17c-8-11-11-32-4-48 2-6 11-18 15-20 13-8 54 3 71 9zm39 247c-13 13-33 26-52 41-14 12-49 35-64 31-5-1-17-9-21-14a54 54 0 0 1-10-47q7 8 16 12c1 8-1 16 8 25 5 4 17 5 25 3 23-6 50-34 68-51-18-17-45-45-68-51-8-2-20-2-25 3-9 9-7 17-8 25q-9 5-16 12c-4-13-2-34 10-47 4-5 16-13 21-14 15-4 50 19 64 31 19 15 39 28 52 41m-39 247q-26 11-62 23c-17 7-58 18-71 10-4-3-13-14-15-20-7-16-4-37 4-48q5 10 13 17c-2 8-7 15-1 26 4 6 14 10 22 10 24 2 59-17 81-27-12-22-29-57-49-70-7-4-18-7-24-4-12 5-12 13-15 21q-9 1-20 6c0-14 9-32 25-42 5-3 19-7 23-6 16 1 42 34 52 49zm-114 223q-28 3-66 3c-18 1-60-1-70-13-4-3-8-17-9-23-1-18 9-36 20-45q1 12 6 20c-4 7-11 12-8 25 1 7 10 14 17 17 23 8 62 1 86-1-5-25-10-63-25-82q-10-10-22-12c-13 2-15 10-21 16h-21c5-13 19-28 37-32 6-2 20-2 24 0 15 6 30 46 35 63q11 37 17 64m-177 177q-27-6-64-17c-17-5-57-20-63-35-2-4-2-18 0-24 4-18 19-32 32-37v21c-6 6-14 8-16 21q2 12 12 22c19 15 57 20 82 25 2-24 9-63 1-86-3-7-10-16-17-17-13-3-18 4-25 8q-8-4-20-6c9-11 27-21 45-20 6 1 20 5 23 9 12 10 14 52 13 70q0 38-3 66m-223 114-55-37c-15-10-48-36-49-52-1-4 3-18 6-23 10-16 28-25 42-25l-6 20c-8 3-16 3-21 15-3 6 0 17 4 24 13 20 48 37 70 49 10-22 29-57 27-81 0-8-4-18-10-22-11-6-18-1-26 1q-7-8-17-13c11-8 32-11 48-4 6 2 17 11 20 15 8 13-3 54-10 71q-11 36-23 62m-247 39c-13-13-26-33-41-52-12-14-35-49-31-64 1-5 9-17 14-21 13-12 34-14 47-10q-7 7-12 16c-8 1-16-1-25 8-5 5-5 17-3 25 6 23 34 50 51 68 17-18 45-45 51-68 2-8 1-20-3-25-9-9-17-7-25-8q-4-9-12-16c13-4 34-2 47 10 5 4 13 16 14 21 4 15-19 50-31 64-15 19-28 39-41 52m-247-39-24-62c-6-17-17-58-9-71 2-4 14-13 20-15 16-7 37-4 48 4q-10 5-17 13c-8-2-15-7-26-1-6 4-10 14-10 22-2 24 17 59 27 81 21-12 57-29 70-49 4-7 7-18 4-24-5-12-13-12-21-15q-1-9-6-20c13 0 32 9 42 25 3 5 7 19 6 23-1 16-34 42-49 52zm-223-114q-3-28-3-66c-1-18 1-60 13-70 3-4 17-8 23-9 18-1 36 9 45 20q-11 1-20 6c-8-4-12-11-25-8-7 1-14 10-17 17-8 23-2 62 1 86 24-5 63-10 82-25q10-10 12-22c-2-13-10-15-16-21q2-10 0-21c13 5 28 19 32 37 2 6 1 20 0 24-7 15-46 30-64 35q-35 11-63 17m-177-177q6-27 17-64c5-17 20-57 34-63 5-2 19-2 25 0 18 4 32 19 37 32h-21c-6-6-8-14-21-16-7 0-17 6-22 12-15 19-20 57-25 82 24 2 63 9 85 1 8-3 17-10 18-17 3-13-4-18-8-25q5-8 6-20c11 9 21 27 20 45-1 6-5 20-9 23-10 12-52 14-70 13q-38 0-66-3M61 1069l37-55c10-15 36-48 52-49 4-1 18 3 23 6 16 10 25 28 25 42l-20-6c-3-8-3-16-15-21-6-3-17 0-24 4-20 13-37 48-49 70 22 10 57 29 81 27 8 0 18-4 21-10 7-11 2-18 0-26q8-7 13-17c8 11 11 32 4 48-2 6-11 17-15 20-13 8-54-3-71-10q-35-11-62-23M22 822q22-19 52-41c14-12 49-35 64-31 5 1 17 9 21 14 12 13 14 34 10 47q-8-7-17-12c0-8 2-16-7-25-5-5-17-5-25-3-23 6-50 34-68 51 18 17 45 45 68 51 8 2 20 1 25-3 9-9 7-17 7-25q9-4 17-12c4 13 2 34-10 47-4 5-16 13-21 14-15 4-50-19-64-31-19-15-39-28-52-41m39-247 62-24c17-6 58-17 71-9 4 2 13 14 15 20 7 16 4 37-5 48q-4-10-12-17c2-8 7-15 0-26-3-6-13-10-21-10-24-2-59 17-81 27 12 21 29 57 49 70 7 4 18 7 24 4 12-5 12-13 15-21q9-1 20-6c0 13-9 32-25 42-5 3-19 7-23 6-16-1-42-34-52-49zm114-223q28-3 66-3c18-1 60 1 70 13 4 3 8 17 9 23 1 18-9 36-20 45q-1-11-6-20c4-8 11-12 8-25-1-7-10-14-18-17-22-8-61-2-85 1 5 24 10 63 25 82 5 6 15 12 22 12 13-2 15-10 21-16q9 2 21 0c-5 13-19 28-37 32-6 2-20 1-25 0-14-7-29-46-34-64q-11-35-17-63m177-177q28 6 63 17c18 5 57 20 64 34 1 5 2 19 0 25-4 18-19 32-32 37q2-12 0-21c6-6 14-8 16-21 0-7-6-17-12-22-19-15-58-20-82-25-3 24-9 63-1 85 3 8 10 17 17 18 13 3 17-4 25-8q9 5 20 6c-9 11-27 21-45 20-6-1-20-5-23-9-12-10-14-52-13-70q0-38 3-66M575 61l55 37c15 10 48 36 49 52 1 4-3 18-6 23a55 55 0 0 1-42 25q5-11 6-20c8-3 16-3 21-15 3-6 0-17-4-24-13-20-49-37-70-49-10 22-29 57-27 81 0 8 4 18 10 21 11 7 18 2 26 0q7 8 17 13c-11 8-32 11-48 4-6-2-18-11-20-15-8-13 3-54 9-71zm247-39q19 22 41 52c12 14 35 49 31 64-1 5-9 17-14 21a54 54 0 0 1-47 10q8-8 12-17c8 0 16 2 25-7 4-5 5-17 3-25-6-23-34-50-51-68-17 18-45 45-51 68-2 8-2 20 3 25 9 9 17 7 25 7q5 9 12 17c-13 4-34 2-47-10-5-4-13-16-14-21-4-15 19-50 31-64 15-19 28-39 41-52m247 39 23 62c7 17 18 58 10 71a50 50 0 0 1-68 10q10-4 17-12c8 2 15 7 26 0 6-3 10-13 10-21 2-24-17-59-27-81-22 12-57 29-70 49-4 7-7 18-4 24 5 12 13 12 21 15q1 9 6 20c-14 0-32-9-42-25-3-5-7-19-6-23 1-16 34-42 49-52zm141 346c-2-4 1-11-2-15l22-9 18-13c7-11 14-27 11-47l16-5c6 35-8 56-27 73-9 8-23 18-38 16m-147-100c-3-3-2-10-7-13l19-16 12-18c4-13 6-30-3-47 2-5 9-7 13-10 16 31 10 56-3 78-6 10-16 23-31 26m-171-49c-4-2-5-9-10-11l12-20 7-21q0-23-19-44l10-14c25 24 27 50 21 75-2 12-7 28-21 35m-178 6c-4-1-8-7-13-7q4-11 6-23v-22c-5-13-14-28-31-37-1-5 3-10 4-16 32 16 42 40 44 65 1 12 1 29-10 40m-167 61c-4 0-10-5-15-3l-1-24-7-21c-9-10-22-22-41-25l-1-16c35 4 52 24 62 48 5 11 10 27 3 41M407 434c-4 2-11-1-15 2l-9-22-13-18c-11-7-27-14-47-11l-5-16c35-6 56 8 73 27 8 9 18 23 16 38M307 581c-3 3-10 2-13 7l-16-19q-8-7-18-12c-13-4-30-6-47 3-5-2-7-9-10-13 31-17 56-10 78 3 10 6 23 16 26 31m-49 171c-2 4-9 5-11 10l-20-12-21-7c-14 1-31 4-44 18-5-1-9-7-14-9 24-25 50-27 75-21 12 2 28 7 35 21m6 178c-1 4-7 8-7 13q-11-4-23-6h-22c-13 5-28 14-37 31-5 1-10-3-16-4 16-32 40-42 65-44 12-1 29-1 40 10m61 167c0 4-5 10-3 14l-24 2-21 7c-10 9-22 22-25 41q-7 2-16 0c4-34 24-51 48-61 11-5 27-10 41-3m109 140c2 4-1 11 2 15l-22 9-18 13c-7 11-14 27-11 46q-7 4-16 6c-6-35 8-56 27-73 9-8 23-18 38-16m147 99c3 4 2 11 7 14l-19 16q-7 8-12 18c-4 12-6 30 3 47-2 4-9 7-13 10a73 73 0 0 1 3-78c6-10 16-24 31-27m171 50c4 2 5 9 10 11l-12 20-7 21c1 13 4 31 18 44-1 5-7 9-9 14a73 73 0 0 1-21-75c2-12 7-28 21-35m178-6c4 0 8 7 13 7q-4 11-6 23v22c5 13 14 28 31 37 1 5-3 10-4 16a73 73 0 0 1-44-65c-1-12-1-29 10-40m167-61c4-1 10 5 14 3l2 24 7 21c9 10 22 22 41 25q2 7 0 16c-34-4-51-24-61-48-5-11-10-27-3-41m140-109c4-2 11 1 15-2l9 22 13 18c11 7 27 14 46 11q4 7 6 16c-35 6-56-8-73-27-8-9-18-23-16-38m99-147c4-3 11-2 14-7l16 19 18 12c12 4 30 6 47-3 4 2 7 9 10 13a73 73 0 0 1-78-3c-10-6-24-16-27-31m50-171c2-4 9-5 11-10l20 12 21 7c13-1 31-5 44-19l14 10a73 73 0 0 1-75 21c-12-2-28-7-35-21m-6-178c0-4 7-8 7-13q11 4 23 6h22c13-5 28-14 37-31 5-1 10 3 16 4a73 73 0 0 1-65 44c-12 1-29 1-40-10m-61-167c-1-4 5-10 3-15l24-1 21-7c10-9 22-22 25-41l16-1c-4 35-24 52-48 62-11 5-27 10-41 3m-82-113c4 2 11-1 15 2l9-22 13-18c11-7 27-14 46-11q4-7 6-16c-35-6-56 8-73 27-8 9-18 23-16 38m-140-109c4 0 10-5 14-3l2-24 7-21c9-10 22-22 41-25q2-7 0-16c-34 4-51 24-61 48-5 11-10 27-3 41m-167-61c4-1 8-7 13-7q-4-11-6-23v-22c5-13 14-28 31-37 1-5-3-10-4-16a73 73 0 0 0-44 65c-1 12-1 29 10 40m-178-6c4-2 5-9 10-11l-12-20-7-21c1-14 4-31 18-44-1-5-7-9-9-14a73 73 0 0 0-21 75c2 12 7 28 21 35m-171 49c3-3 2-10 7-13l-19-16q-7-8-12-18c-4-13-6-30 3-47-2-5-9-7-13-10a73 73 0 0 0 3 78c6 10 16 23 31 26M434 407c2-4-1-11 2-15l-22-9-18-13c-7-11-14-27-11-47l-16-5c-6 35 8 56 27 73 9 8 23 18 38 16M325 547c0-4-5-10-3-15l-24-1-21-7c-10-9-22-22-25-41l-16-1c4 35 24 52 48 62 11 5 27 10 41 3m-61 167c-1-4-7-8-7-13q-11 4-23 6h-22c-13-5-28-14-37-31-5-1-10 3-16 4 16 32 40 42 65 44 12 1 29 1 40-10m-6 178c-2-4-9-5-11-10l-20 12-21 7q-23 0-44-19l-14 10c24 25 50 27 75 21 12-2 28-7 35-21m49 171c-3-3-10-2-13-7l-16 19-18 12c-13 4-30 6-47-3-5 2-7 9-10 13 31 16 56 10 78-3 10-6 23-16 26-31m100 147c-4-2-11 1-15-2l-9 22-13 18c-11 7-27 14-47 11l-5 16c35 6 56-8 73-27 8-9 18-23 16-38m140 109c-4-1-10 5-15 3l-1 24-7 21c-9 10-22 22-41 25l-1 16c35-4 52-24 62-48 5-11 10-27 3-41m167 61c-4 0-8 7-13 7q4 11 6 23v22c-5 13-14 28-31 37-1 5 3 10 4 16 32-16 42-40 44-65 1-12 1-29-10-40m178 6c-4 2-5 9-10 11l12 20 7 21c-1 13-5 31-19 44l10 14c25-24 27-50 21-75-2-12-7-28-21-35m171-50c-3 4-2 11-7 14l19 16 12 18c4 12 6 30-3 47 2 4 9 7 13 10 16-31 10-56-3-78-6-10-16-24-31-27m147-99c-2 4 1 11-2 15l22 9 18 13c7 11 14 27 11 46q7 4 16 6c6-35-8-56-27-73-9-8-23-18-38-16m109-140c-1 4 5 10 3 14l24 2 21 7c10 9 22 22 25 41q7 2 16 0c-4-34-24-51-48-61-11-5-27-10-41-3m61-167c0 4 7 8 7 13q11-4 23-6h22c13 5 28 14 37 31 5 1 10-3 16-4a73 73 0 0 0-65-44c-12-1-29-1-40 10m6-178c2 4 9 5 11 10l20-12 21-7c13 1 31 4 44 18 5-1 9-7 14-9a73 73 0 0 0-75-21c-12 2-28 7-35 21m-50-171c4 3 11 2 14 7l16-19q8-7 18-12c12-4 30-6 47 3 4-2 7-9 10-13a73 73 0 0 0-78 3c-10 6-24 16-27 31"/>
    <path d="M1262 216c12 7 14 52 3 59l-12-13c3-5 5-16 0-20q-19 8-24 32l-11 2q1-4-1-11 22-10 23-33c-5-3-15 3-19 7l-16-7c4-13 47-25 57-16m166 166c9 10-3 53-16 57l-7-16c4-4 10-14 7-20q-22 2-33 24-7-2-11-1l2-11q24-5 32-24c-4-5-16-3-20 0l-13-12c7-11 52-9 59 3m107 208c4 13-20 50-34 50l-1-17c5-2 13-11 12-17q-21-4-39 12-4-3-10-4 4-4 6-10 24 3 38-13c-3-6-14-8-19-6l-9-15c10-8 52 8 56 20m36 232c1 13-34 41-47 37l4-17c6-1 16-6 17-12q-18-11-41 0-3-5-8-8 5-2 8-8 23 11 41 0c-1-6-11-12-17-12l-4-17c13-5 48 24 47 37m-36 232c-4 12-46 28-56 20l9-15c5 2 16 0 19-6q-14-16-38-13-2-6-6-10l10-4q18 16 39 12c1-6-7-15-12-17l1-17c14 0 38 37 34 50m-107 208c-7 12-52 14-59 3l13-12c4 3 16 5 20 0q-8-19-32-24l-2-11q4 1 11-1 11 22 33 23c3-5-3-15-7-19l7-16c13 4 25 47 16 57m-166 166c-10 9-53-3-57-16l16-7c4 4 14 10 19 7q-1-22-23-33 2-7 1-11l11 2q5 24 24 32c5-4 3-16 0-20l12-13c11 7 9 52-3 59m-208 107c-13 4-50-20-50-34l17-1c2 5 11 13 17 12q5-21-12-39l4-10q4 4 10 6-3 24 13 38c6-3 8-14 6-19l15-9c8 10-8 52-20 56m-232 36c-13 1-42-34-37-47l17 4c0 6 6 16 12 17q11-18 0-41 5-3 8-8 3 5 8 8-11 23 0 41c6-1 11-11 12-17l17-4c4 13-24 48-37 47m-232-36c-12-4-28-46-20-56l15 9c-2 5 0 16 6 19q16-14 13-38 6-2 10-6 1 6 4 10a40 40 0 0 0-12 39c6 1 15-7 17-12l17 1c0 14-37 38-50 34m-208-107c-12-7-14-52-3-59l12 13c-3 4-5 16 0 20q20-8 24-32l11-2q-1 4 1 11-22 11-24 33c6 3 16-3 20-7l16 7c-4 13-47 25-57 16m-166-166c-9-10 3-53 16-57l7 16c-4 4-10 14-7 19q23-1 33-23 7 2 11 1l-2 11q-24 5-32 24c4 5 15 3 20 0l13 12c-7 11-52 9-59-3m-107-208c-5-13 20-50 34-50l1 17c-5 2-13 11-12 17q21 5 39-12l10 4q-4 4-6 10-24-3-38 13c2 6 14 8 19 6l9 15c-10 8-52-8-56-20M73 822c-1-13 34-42 46-37l-4 17c-5 0-15 6-16 12q18 11 40 0l9 8-9 8q-21-11-40 0c1 6 11 11 16 12q3 8 4 17c-12 4-47-24-46-37m36-232c4-12 46-28 56-20l-9 15c-5-2-17 0-19 6q14 16 38 13 2 6 6 10-6 1-10 4a40 40 0 0 0-39-12c-1 6 7 15 12 17l-1 17c-14 0-39-37-34-50m107-208c7-12 52-14 59-3l-13 12c-5-3-16-5-20 0q8 20 32 24l2 11q-4-1-11 1-10-22-33-24c-3 6 3 16 7 20l-7 16c-13-4-25-47-16-57m166-166c10-9 53 3 57 16l-16 7c-4-4-14-10-20-7q2 23 24 33-2 7-1 11l-11-2q-5-24-24-32c-5 4-3 15 0 20l-12 13c-11-7-9-52 3-59m208-107c13-5 50 20 50 34l-17 1c-2-5-11-13-17-12q-4 21 12 39-3 4-4 10-4-4-10-6 3-24-13-38c-6 2-8 14-6 19l-15 9c-8-10 8-52 20-56m232-36c13-1 41 34 37 46q-9-1-17-4c-1-5-6-15-12-16q-11 18 0 40l-8 9-8-9q11-21 0-40c-6 1-12 11-12 16l-17 4c-5-12 24-47 37-46m232 36c12 4 28 46 20 56l-15-9c2-5 0-17-6-19q-16 14-13 38-6 2-10 6l-4-10q16-18 12-39c-6-1-15 7-17 12l-17-1c0-14 37-39 50-34"/>
    <path d="m1265 292-12 5q-6-18-20-29 4-8 11-12 17 12 21 36m-185-111-10 8q-12-15-28-21 1-9 6-15 20 7 32 28m-211-49-7 11q-16-10-33-11-2-9 2-16 20 1 38 16m-215 20-4 12q-18-5-35 0-4-9-3-16 20-6 42 4m-199 84 1 13q-19 1-34 11-7-7-8-15 17-10 41-9M292 378l5 13q-18 6-29 20-8-4-12-11 12-16 36-22M181 564l8 10q-15 12-21 28-9 0-15-7 7-18 28-31m-49 211q6 2 11 7-10 16-11 33-9 2-16-2 1-20 16-38m20 215 12 3q-5 20 0 36-9 4-16 3-6-19 4-42m84 199 13-1q1 19 11 34-7 6-15 8-10-17-9-41m142 163 13-5q6 18 20 29-4 8-11 12-16-13-22-36m186 111 10-8q12 14 28 21 0 8-7 15-18-7-31-28m211 48 7-10q16 10 33 11 2 9-2 16c-13-2-26-5-38-17m215-19 3-12q20 5 36 0 4 8 3 16-19 6-42-4m199-84-1-13q19-1 34-11 6 6 8 14-17 12-41 10m163-143-5-12q18-6 29-20 8 4 12 11-13 17-36 21m111-185-8-10q14-12 21-28 8 1 15 6-7 20-28 32m48-211-10-7q10-16 11-33 9-2 16 2c-2 13-5 26-17 38m-19-215-12-4q5-18 0-35 8-4 16-3 6 20-4 42m-84-199-13 1q-1-19-11-34 6-7 14-8 12 17 10 41m-56-77-5 13q18 6 29 20 8-4 12-11-13-16-36-22m-163-142-1 13q19 1 34 11 6-7 8-15-17-10-41-9m-199-84 3 12q20-5 36 0 4-9 3-16-19-6-42 4m-215-20q2 6 7 11 16-10 33-11 2-9-2-16-20 1-38 16m-211 49 10 8q12-15 28-21 0-9-7-15-18 7-31 28M378 292l13 5q6-18 20-29-4-8-11-12-16 12-22 36M236 455l13 1q1-19 11-34-7-7-15-8-10 17-9 41m-84 199 12-4q-5-18 0-35-9-4-16-3-6 20 4 42m-20 215 11-7q-10-16-11-33-9-2-16 2 1 20 16 38m49 211 8-10q-15-12-21-28-9 1-15 6 7 20 28 32m111 185 5-12q-18-6-29-20-8 4-12 11 12 17 36 21m163 143 1-13q-19-1-34-11-7 6-8 14 17 12 41 10m199 84-4-12q-18 5-35 0-4 8-3 16 20 6 42-4m215 19-7-10q-16 10-33 11-2 9 2 16c13-2 26-5 38-17m211-48-10-8q-12 14-28 21 1 8 6 15 20-7 32-28m185-111-12-5q-6 18-20 29 4 8 11 12 17-13 21-36m143-163-13-1q-1 19-11 34 6 6 14 8 12-17 10-41m84-199-12 3q5 20 0 36 8 4 16 3 6-19-4-42m19-215-10 7q10 16 11 33 9 2 16-2c-2-13-5-26-17-38m-48-211-8 10q14 12 21 28 8 0 15-7-7-18-28-31m-220-195q-30-15-72-18l7-13q40 6 74 16-2 10-9 15m-160-108q-34-5-75 6l3-15q39-7 76-8 0 10-4 17m-187-53q-33 6-69 28l-1-15q34-19 69-31 5 10 1 18m-193 7q-30 16-57 48l-6-14q27-28 56-50 7 7 7 16m-182 66q-22 25-39 64l-10-11q18-37 38-66 9 5 11 13M369 401q-15 30-18 72l-13-7q6-40 16-75 10 2 15 10M261 561q-5 33 6 75l-15-3q-7-40-8-76 10-1 17 4m-53 186q6 35 28 69l-15 2q-19-35-31-69 10-5 18-2m7 194q16 30 48 57l-14 6q-28-28-50-57 7-7 16-6m66 182q25 22 64 39l-11 10q-37-17-66-38 5-9 13-11m120 152q30 15 72 18l-7 13q-40-6-75-16 2-10 10-15m160 108q33 4 75-6l-3 15q-40 7-76 8-1-10 4-17m186 53q35-6 69-28l2 15q-35 18-69 31-5-10-2-18m194-7q30-16 57-48l6 13q-28 29-57 51-7-7-6-16m182-66q22-24 39-64l10 11q-17 36-38 66-9-5-11-13m152-120q15-30 18-72l13 7q-6 40-16 74-10-2-15-9m108-160q4-34-6-75l15 3q7 39 8 76-10 0-17-4m53-187q-6-33-28-69l15-1q18 34 31 69-10 5-18 1m-7-193q-16-30-48-57l13-6q29 27 51 56-7 7-16 7m-66-182q-24-22-64-39l11-10q36 18 66 38-5 9-13 11m-88-120q15 30 18 72l13-7q-6-40-16-75-10 2-15 10m-152-120q22 25 39 64l10-11q-17-37-38-66-9 5-11 13m-182-66q30 16 57 48l6-14q-28-28-57-50-7 7-6 16m-194-7q35 6 69 28l2-15q-35-19-69-31-5 10-2 18m-186 53q33-5 75 6l-3-15q-40-7-76-8-1 10 4 17M401 369q30-15 72-18l-7-13q-40 6-75 16 2 10 10 15M281 521q25-22 64-39l-11-10q-37 18-66 38 5 9 13 11m-66 182q16-30 48-57l-14-6q-28 27-50 56 7 7 16 7m-7 193q6-33 28-69l-15-1q-19 34-31 69 10 5 18 1m53 187q-5-34 6-75l-15 3q-7 39-8 76 10 0 17-4m108 160q-15-30-18-72l-13 7q6 40 16 74 10-2 15-9m152 120q-22-24-39-64l-10 11q18 36 38 66 9-5 11-13m182 66q-30-16-57-48l-6 13q27 29 56 51 7-7 7-16m193 7q-33-6-69-28l-1 15q34 18 69 31 5-10 1-18m187-53q-34 4-75-6l3 15q39 7 76 8 0-10-4-17m160-108q-30 15-72 18l7 13q40-6 74-16-2-10-9-15m120-152q-24 22-64 39l11 10q36-17 66-38-5-9-13-11m66-182q-16 30-48 57l13 6q29-28 51-57-7-7-16-6m7-194q-6 35-28 69l15 2q18-35 31-69-10-5-18-2m-53-186q4 33-6 75l15-3q7-40 8-76-10-1-17 4m-167-281 19-5q6 6 6 13-19 8-40 12-2-21-1-42 8-2 14 2zm148 148 20 2q4 6 2 14l-42-1q5-21 12-40c4-2 10 3 13 6z"/>
    <path d="m1459 615 18 7q4 9-2 15l-39-14q11-19 23-35c5 0 9 6 11 10zm33 207 15 13c0 4-2 11-7 12l-33-25q17-15 33-26c5 2 7 9 7 13zm-33 207 11 17q-3 7-11 10-12-16-23-35l39-14q6 6 2 15zm-95 187 5 19q-6 6-13 6-7-19-12-40 21-2 42-1 2 8-2 14zm-148 148-2 20q-6 4-14 2-1-21 1-42 22 5 40 12 0 7-6 13zm-187 95-7 18q-9 4-15-2l14-39q19 11 35 23-3 8-10 11zm-207 33-13 15c-4 0-11-2-13-7q11-16 26-33l25 33c-1 5-8 7-12 7zm-207-33-17 11c-4-2-10-6-10-11q16-12 35-23l14 39q-6 6-15 2zm-187-95-19 5c-3-3-8-9-6-13q19-7 40-12l1 42q-8 2-14-2zm-148-148-20-2q-4-6-2-14 21-1 42 1-5 22-12 40-7 0-13-6zm-96-187-17-7q-3-9 2-15l39 14q-11 19-23 35-8-3-11-10zm-32-207-15-13c0-4 2-11 7-13q17 11 33 26-16 14-33 25c-5-1-7-8-7-12zm32-207-10-17c2-4 6-10 11-10q12 16 23 35l-39 14q-5-6-2-15zm96-187-5-19c3-3 9-8 13-6q8 19 12 40l-42 1q-2-8 2-14zm148-148 2-20q6-4 14-2l-1 42q-21-5-40-12c-2-4 3-10 6-13zm187-96 7-17q9-3 15 2l-14 39q-19-11-35-23c0-5 6-9 10-11zm207-32 13-15c4 0 11 2 12 7q-11 17-25 33-15-16-26-33c2-5 9-7 13-7zm207 32 17-10q7 3 10 11-16 12-35 23l-14-39q6-5 15-2zm175 256c-8-7-13-25-15-40q0-20 2-39 10 0 16 2c-3 21-3 46 6 61 2 4-9 11-9 16m-137-100c-10-3-20-19-26-33q-7-19-10-38l15-2c3 20 11 44 24 56 4 3-4 13-3 17m-161-52c-10 0-25-12-35-24q-12-15-22-32 8-6 15-7c9 18 24 38 40 45 4 2 0 15 2 18m-169 0c-10 3-28-4-41-12q-16-10-30-24 5-8 11-11c15 15 35 29 52 31 5 0 5 14 8 16m-161 52c-8 6-27 6-42 2q-20-5-37-14 3-9 8-14c18 10 42 17 59 13 5-1 8 12 12 13M440 440c-7 8-25 13-40 15q-20 0-39-2 0-10 2-16c21 3 46 3 61-6 4-2 11 9 16 9M340 577c-3 10-19 20-33 26q-19 7-38 10l-2-15c20-4 44-11 56-24 3-4 13 4 17 3m-52 161c0 10-12 25-24 35q-15 13-32 21-6-7-7-14c18-9 38-24 45-40 2-5 15 0 18-2m0 169c3 10-4 28-12 41q-10 16-24 30-8-5-11-11c15-15 29-35 31-52 0-5 14-5 16-8m52 161c6 8 6 27 2 42q-5 20-14 37-9-3-14-8c10-18 17-42 13-59-1-5 12-8 13-12m100 136c8 7 13 25 15 40q0 20-2 39-10 1-16-2c3-21 3-46-6-61-2-4 9-11 9-16m137 100c10 3 20 19 26 33q7 19 10 38-9 3-15 2c-4-20-11-44-24-56-4-3 4-13 3-17m161 52c10 0 25 12 35 24q13 14 21 32-7 7-14 7c-9-18-24-38-40-45-5-2 0-15-2-18m169 0c10-3 28 4 41 11q16 11 30 25-5 7-11 11c-15-15-35-29-52-31-5 0-5-14-8-16m161-52c8-6 27-6 42-2q20 5 37 14-3 9-8 14c-18-10-42-17-59-14-5 2-8-11-12-12m136-100c7-8 25-13 40-15q20 0 39 2 1 10-2 16c-21-3-46-3-61 6-4 2-11-9-16-9m100-137c3-10 19-20 33-26q19-7 38-10 3 8 2 15c-20 3-44 11-56 24-3 4-13-4-17-3m52-161c0-10 12-25 24-35q14-12 32-22 7 8 7 15c-18 9-38 24-45 40-2 4-15 0-18 2m0-169c-3-10 4-28 11-41q11-16 25-30 7 5 11 11c-15 15-29 35-31 52 0 5-14 5-16 8m-52-161c-6-8-6-27-2-42q5-20 14-37 9 3 14 8c-10 18-17 42-14 59 2 5-11 8-12 12m-100-136c7 8 25 13 40 15q20 0 39-2 1-10-2-16c-21 3-46 3-61-6-4-2-11 9-16 9m-136-100c8 6 27 6 42 2q20-5 37-14-3-9-8-14c-18 10-42 17-59 13-5-1-8 12-12 13m-161-52c10 3 28-4 41-12q16-10 30-24-5-8-11-11c-15 15-35 29-52 31-5 0-5 14-8 16m-169 0c10 0 25-12 35-24q13-15 21-32-7-6-14-7c-9 18-24 38-40 45-5 2 0 15-2 18m-161 52c10-3 20-19 26-33q7-19 10-38l-15-2c-4 20-11 44-24 56-4 3 4 13 3 17M440 440c8-7 13-25 15-40q0-20-2-39-10 0-16 2c3 21 3 46-6 61-2 4 9 11 9 16M340 576c6-8 6-27 2-42q-5-20-14-37-9 3-14 8c10 18 17 42 13 59-1 5 12 8 13 12m-52 161c3-10-4-28-12-41q-10-16-24-30-8 5-11 11c15 15 29 35 31 52 0 5 14 5 16 8m0 169c0-10-12-25-24-35q-15-12-32-22-6 8-7 15c18 9 38 24 45 40 2 4 15 0 18 2m52 161c-3-10-19-20-33-26q-19-7-38-10l-2 15c20 3 44 11 56 24 3 4 13-4 17-3m100 137c-7-8-25-13-40-15q-20 0-39 2 0 10 2 16c21-3 46-3 61 6 4 2 11-9 16-9m136 100c-8-6-27-6-42-2q-20 5-37 14 3 9 8 14c18-10 42-17 59-14 5 2 8-11 12-12m161 52c-10-3-28 4-41 11q-16 11-30 25 5 7 11 11c15-15 35-29 52-31 5 0 5-14 8-16m169 0c-10 0-25 12-35 24q-12 14-22 32 8 7 15 7c9-18 24-38 40-45 4-2 0-15 2-18m161-52c-10 3-20 19-26 33q-7 19-10 38 8 3 15 2c3-20 11-44 24-56 4-3-4-13-3-17m137-100c-8 7-13 25-15 40q0 20 2 39 10 1 16-2c-3-21-3-46 6-61 2-4-9-11-9-16m100-136c-6 8-6 27-2 42q5 20 14 37 9-3 14-8c-10-18-17-42-14-59 2-5-11-8-12-12m52-161c-3 10 4 28 11 41q11 16 25 30 7-5 11-11c-15-15-29-35-31-52 0-5-14-5-16-8m0-169c0 10 12 25 24 35q14 13 32 21 7-7 7-14c-18-9-38-24-45-40-2-5-15 0-18-2m-52-161c3 10 19 20 33 26q19 7 38 10 3-9 2-15c-20-4-44-11-56-24-3-4-13 4-17 3m32-129 7 1v27l-15-2c-3-3-1-8-4-10l-8-1 2-7c-1-5-7-4-9-8l3-15q14 3 25 9zm90 178 7 3-8 25q-7-2-14-7c-2-3 1-7-1-11l-8-3 5-6c0-5-5-6-6-10l7-13 22 15zm32 196 4 5q-5 10-15 21-6-3-11-10c-1-4 4-7 2-11l-6-5 6-5c2-4-3-7-2-11q5-7 11-10 10 11 15 21zm-32 196 4 6q-9 10-22 16l-7-13c1-4 6-5 6-10l-5-7 8-2c2-4-1-8 1-11q7-5 14-7 6 13 8 25zm-90 178 1 6q-11 6-25 9l-3-15c2-4 8-4 9-8l-2-7 8-1c3-2 1-7 4-10l15-2v26zm-140 140-2 7h-26l2-15c3-3 8-1 10-4l1-8 7 2c4-1 4-7 8-9l15 3q-3 14-9 25zm-178 90-3 7-25-8q2-7 7-14c3-2 7 1 11-1l2-8 7 5c5 0 6-5 10-6l13 7q-7 12-16 22zm-196 32-5 4q-11-5-21-15 3-6 10-11c4-1 7 4 11 2l5-6 5 6c4 2 7-3 11-2q6 5 10 11-10 10-21 15zm-196-32-7 4q-8-9-15-22l13-7c4 1 5 6 10 6l6-5 3 8c4 2 8-1 11 1q5 7 7 14-13 6-25 8zm-178-90-6 1q-6-11-9-25l15-3c4 2 3 8 8 9l7-2 1 8c2 3 7 1 10 4q3 8 2 15h-27zm-140-140-7-2v-26l15 2q1 6 4 10l8 1-2 7c1 4 7 4 9 8l-3 15q-14-3-25-9zm-90-178-7-3 8-25q7 2 14 7c2 3-1 7 1 11l8 2-5 7c0 5 5 6 6 10l-7 13q-12-7-22-16zm-32-196-4-5q5-11 15-21 6 3 11 10c0 4-4 7-2 11l6 5-6 5c-2 4 2 7 2 11q-5 6-11 10-10-10-15-21zm32-196-4-7q9-8 22-15l7 13c-1 4-6 5-6 10l5 6-8 3c-2 4 1 8-1 11q-7 5-14 7-6-13-8-25zm90-178-1-6q11-6 25-9l3 15c-2 4-8 3-9 8l2 7-8 1q-3 4-4 10-8 3-15 2v-27zm140-140 1-7h27l-2 15q-6 1-10 4l-1 8-7-2c-5 1-4 7-8 9l-15-3q3-14 9-25zm178-90 3-7 25 8q-2 7-7 14c-3 2-7-1-11 1l-3 8-6-5c-5 0-6 5-10 6l-13-7 15-22zm196-32 5-4q10 5 21 15-3 6-10 11c-4 0-7-4-11-2l-5 6-5-6c-4-2-7 2-11 2q-7-5-10-11 11-10 21-15zm196 32 6-4q10 9 16 22l-13 7c-4-1-5-6-10-6l-7 5-2-8c-4-2-8 1-11-1q-5-7-7-14 13-6 25-8zm178 90 6-1q6 11 9 25l-15 3c-4-2-4-8-8-9l-7 2-1-8q-4-3-10-4l-2-15h26zm103 167c-8 14-8 36 3 46l-3 18c-11-12-24-28-22-48-19-4-31-21-38-35l17 2c7 14 28 21 43 17m84 165c-12 10-19 31-11 44l-9 16c-7-14-14-34-6-52-17-10-22-30-25-46q6 5 16 8c1 15 19 28 35 30m29 182c-15 6-28 24-25 39l-12 12c-3-16-3-36 10-51-13-15-13-35-10-51l12 12c-3 15 10 33 25 39m-29 182c-16 2-34 15-35 30q-10 3-16 8c3-16 8-36 25-46-8-18-1-38 6-52l9 16c-8 13-1 34 11 44m-84 165c-15-4-36 3-43 17l-17 2c7-14 19-31 38-35-2-20 11-36 22-48l3 18c-11 10-11 32-3 46m-130 130c-14-8-36-8-46 3l-18-3c12-11 28-24 48-22 4-19 21-31 35-38l-2 17c-14 7-21 28-17 43m-165 84c-10-12-31-19-44-11l-16-9c14-7 34-14 52-6 10-17 30-22 46-25q-5 6-8 16c-15 1-28 19-30 35m-182 29c-6-15-24-28-39-25l-12-12c16-3 36-3 51 10 15-13 35-13 51-10l-12 12c-15-3-33 10-39 25m-182-29c-2-16-15-34-30-35q-3-10-8-16c16 3 36 8 46 25 18-8 38-1 52 6l-16 9c-13-8-34-1-44 11m-165-84c4-15-3-36-17-43l-2-17c14 7 31 19 35 38 20-2 36 11 48 22l-18 3c-10-11-32-11-46-3m-130-130c8-14 8-36-3-46l3-18c11 12 23 28 22 48 19 4 30 21 38 35l-17-2c-7-14-28-21-43-17m-84-165c12-10 19-31 11-44l9-16c7 14 14 34 6 52 17 10 22 30 25 46l-16-8c-1-15-19-28-35-30m-29-182c15-6 28-24 25-39l12-12c3 16 3 36-10 51 13 15 13 35 10 51l-12-12c3-15-10-33-25-39m29-182c16-2 34-15 35-30l16-8c-3 16-8 36-25 46 8 18 1 38-6 52l-9-16c8-13 1-34-11-44m84-165c15 4 36-3 43-17l17-2c-8 14-19 31-38 35 1 20-11 36-22 48l-3-18c11-10 11-32 3-46m130-130c14 8 36 8 46-3l18 3c-12 11-28 23-48 22-4 19-21 30-35 38l2-17c14-7 21-28 17-43m165-84c10 12 31 19 44 11l16 9c-14 7-34 14-52 6-10 17-30 22-46 25l8-16c15-1 28-19 30-35m182-29c6 15 24 28 39 25l12 12c-16 3-36 3-51-10-15 13-35 13-51 10l12-12c15 3 33-10 39-25m182 29c2 16 15 34 30 35l8 16c-16-3-36-8-46-25-18 8-38 1-52-6l16-9c13 8 34 1 44-11m165 84c-4 15 3 36 17 43l2 17c-14-8-31-19-35-38-20 1-36-11-48-22l18-3c10 11 32 11 46 3"/>
</svg>