<svg xmlns="http://www.w3.org/2000/svg" xml:space="preserve" width="800" height="800" viewBox="0 0 503.61 503.61" fill="#000">
    <path d="M251.8 0C113.31 0 0 112.47 0 251.8s113.31 251.8 251.8 251.8 251.8-113.3 251.8-251.8S390.3 0 251.8 0m0 486.82c-129.26 0-235-105.76-235-235.02s105.74-235 235-235 235.02 105.74 235.02 235S381.06 486.82 251.8 486.82"/>
    <path d="M251.8 33.57c-120.02 0-218.23 98.2-218.23 218.23 0 120.87 98.2 218.23 218.23 218.23s218.23-97.36 218.23-218.23c0-120.02-98.2-218.23-218.23-218.23m8.4 419.49v-134.1h16.78c5.04 0 8.4-3.37 8.4-8.4s-3.36-8.4-8.4-8.4h-50.36c-5.03 0-8.39 3.36-8.39 8.4s3.36 8.4 8.4 8.4h16.78v134.1c-104.16-4.33-188.53-88.7-192.86-192.86h134.1v16.78c0 5.04 3.36 8.4 8.4 8.4s8.4-3.36 8.4-8.4v-50.36c0-5.03-3.37-8.39-8.4-8.39s-8.4 3.36-8.4 8.4v16.78H50.56c4.32-104.16 88.7-188.53 192.86-192.86v134.1h-16.79c-5.03 0-8.39 3.36-8.39 8.4s3.36 8.4 8.4 8.4h50.35c5.04 0 8.4-3.37 8.4-8.4s-3.36-8.4-8.4-8.4H260.2V50.56c104.15 4.32 188.53 88.7 192.86 192.86h-134.1v-16.79c0-5.03-3.37-8.39-8.4-8.39s-8.4 3.36-8.4 8.4v50.35c0 5.04 3.36 8.4 8.4 8.4s8.4-3.36 8.4-8.4V260.2h134.1c-4.33 104.15-88.7 188.53-192.86 192.86"/>
    <path d="M251.8 235.02a16.84 16.84 0 0 0-16.78 16.78c0 9.24 7.55 16.79 16.78 16.79s16.79-7.55 16.79-16.79-7.55-16.78-16.79-16.78"/>
</svg>