<svg xmlns="http://www.w3.org/2000/svg" viewBox="0 0 512 512" fill="#000">
    <path d="M3.14 132.9a466 466 0 0 1 44.94-47.39c60.17-54.78 127.69-84 197.43-85.45 69.61-1.46 141.02 24.79 209.14 80.95a526 526 0 0 1 54.3 52 11.7 11.7 0 0 1 .78 14.81c-19.73 27.91-41.98 51.4-65.97 70.56-53.57 42.77-115.96 63.9-179.2 64.29-63.05.39-126.84-19.87-183.44-59.83-28.31-20-54.85-44.93-78.58-74.67a11.7 11.7 0 0 1 .6-15.27M256 83.24a58.1 58.1 0 1 1-58.1 58.1c0-5.97.9-11.74 2.57-17.16a29.62 29.62 0 1 0 38.09-38.27A58 58 0 0 1 256 83.24m107.24-33.52a142 142 0 0 1 23.1 37.7 140.7 140.7 0 0 1 .01 107.86 142 142 0 0 1-30.6 45.8l-1.92 1.89a274 274 0 0 0 75.37-42.91c20.12-16.07 38.96-35.49 55.99-58.27a496 496 0 0 0-45.38-42.73c-25.22-20.8-50.84-37.2-76.57-49.34m-212.08 185.9a141 141 0 0 1-25.5-40.32 141 141 0 0 1-10.74-53.96c0-19.01 3.81-37.22 10.72-53.87a142 142 0 0 1 28.96-44.1c-31.5 13.33-61.97 33.25-90.76 59.44a434 434 0 0 0-36.95 38.17c20.74 24.71 43.54 45.64 67.69 62.71a317 317 0 0 0 56.58 31.93M300.95 32.58a117 117 0 0 0-44.94-8.88c-15.94 0-31.12 3.17-44.93 8.9a118 118 0 0 0-38.23 25.64 118 118 0 0 0-25.6 38.2 117 117 0 0 0-8.88 44.9c0 15.96 3.17 31.17 8.9 44.98a118 118 0 0 0 25.58 38.19 117 117 0 0 0 83.16 34.45c15.95 0 31.15-3.17 44.96-8.88a118 118 0 0 0 38.2-25.57 118 118 0 0 0 25.57-38.16 118 118 0 0 0 8.89-45.01 117.2 117.2 0 0 0-34.46-83.16 118 118 0 0 0-38.22-25.6" transform="translate(0 108)"/>
</svg>