<svg xmlns="http://www.w3.org/2000/svg" width="1707" height="1707" version="1.0" viewBox="0 0 1280 1280" fill="#000">
    <path d="M628 43q-1 2-8 2l-8 2-4 1-3 1-5 2-6 1-1 1-7 3c-6 2-6 2-20 0-9-2-40-2-47 0l-21 6c-3 0-27 13-34 19l-9 2-40 6-5 2-6 1-2 1a130 130 0 0 0-45 31q-11 11-13 10l-3 1-4 1-3 1-5 1-7 3-4 1-3 1-10 5q-15 8-28 20a152 152 0 0 0-25 33l-3 3-12 7q-41 20-59 59l-6 11-2 8c-3 7-3 7-11 14-7 5-21 18-27 25l-14 25-4 8-1 5q-3 7-6 29l-2 8a239 239 0 0 0-26 37l-6 15-4 15-2 28v22l-5 9-10 25-4 14-1 5v33l1 5 4 18c3 6 3 19 0 22l-2 6-1 7-1 4-1 5v35l1 4 5 18 10 22 4 8v21a126 126 0 0 0 7 47c0 2 9 20 13 25l5 8 13 16 2 8a135 135 0 0 0 29 70c7 9 24 24 29 27q2 1 4 8c3 9 14 31 19 38q18 26 51 42 11 5 12 9l1 1 1 2a146 146 0 0 0 44 46l5 2 12 6 15 6 5 1 4 1c8 2 9 3 17 10l14 13a129 129 0 0 0 46 24q6 3 23 4c21 2 23 2 29 6l6 4 2 1a126 126 0 0 0 39 17c6 3 36 4 52 1 12-2 14-2 18 0l7 3 3 1 6 2 5 1 3 1 4 1 8 2q7 0 9 2c0 2 23 2 23 0q1-2 7-2 11-1 16-4l6-2 5-1 3-1 7-3c4-2 5-2 19 0 8 2 39 2 46 0l22-6 29-16 8-5 17-2 20-2 9-2 7-2 3-1 2-1c7 0 35-20 50-35q6-7 8-6l4-1 3-1 4-1 9-3c8-3 25-11 33-16a161 161 0 0 0 41-46l10-8q15-6 28-16c7-6 18-17 21-22l14-22 5-11 3-8c2-7 1-6 14-17a137 137 0 0 0 39-51l2-7 3-8 4-22c1-8 2-9 5-12l18-24a118 118 0 0 0 17-68v-21l4-8a162 162 0 0 0 16-45 141 141 0 0 0-5-57 26 26 0 0 1 0-21l4-19 1-5 1-17-1-17-1-4-4-14-4-11-7-15-3-6-1-22a137 137 0 0 0-7-48 144 144 0 0 0-31-49l-2-8a140 140 0 0 0-18-55q-10-18-36-40c-6-4-7-5-8-11l-3-8-5-11-14-22a139 139 0 0 0-45-36q-15-8-17-14c-4-8-17-23-29-35q-9-8-23-15l-8-4-5-2-4-1-7-2-4-2-4-1c-9-2-10-3-19-11l-14-13a128 128 0 0 0-45-23q-6-3-23-4c-19-2-24-2-26-5l-3-2-7-4a127 127 0 0 0-92-18c-14 2-14 2-18 0l-7-3-3-1-5-2-6-1-3-1-4-1-8-2q-7 0-9-2c0-2-23-2-23 0"/>
</svg>