<svg xmlns="http://www.w3.org/2000/svg" viewBox="0 0 1832 1664" fill="#000">
    <path d="M1627 157c-60-59-93-74-121-88-183-96-458 5-588 151C761 70 558-14 368 54A557 557 0 0 0 60 389h-1c-14 48-20 99-20 120l-1-3c-52 572 715 712 879 1142l20-49c167-334 834-539 861-991 4-174-22-299-171-451m107 246q14 18 17 39c-16-5-22-5-38-11-3-5 17-25 21-28m-12-60 7 18h-3l-2-2-10-3h-3zm-16 41c-10 37-53 34-92 45l3-3c11-17 37-35 59-39h1c15-5 25-3 29-3m-121-24-4-4c5 2 90 5 91 5l-76 30v-1s-2-13-11-30m-54 240-3-14-1-2 30 16c5 2 12 30 13 37 2 4 2 28-1 34l-3 10-25-2 1-1c-1-17 3-35-11-78m18 112c14 8 23 34 26 49h1q5 21 6 42v-1c-28 2-80-76-33-90m121-451q3 0 4 3v1q3 5 4 12l-8-1-1-1q-3 1-6-2zm-46-57-16 5-3-1-5-35c10 7 22 18 24 31m-33 74c2-10 13-40 35-47q6-2 11 0 0 6-3 12c-10 26-39 35-44 38zm99 48c-1 16-113 2-113 1-2-6 115-62 113-1m-117 228c-13 5-43-4-55-6l-1-2h-3l-10-3c-4 0-83-27-122-58l7-3h1l-1-1c145-60 203 49 184 73m-230 275 5-3c14-4 32 20 32 40l1-3q2 17-4 35v-2c-6 31-41 89-44 98-7-40-13-132 10-165m-38-421-1-2-14-18h-1v-1l21-8-1-1c6 1 13-1 19 2 22 12 28 59-11 84l-2 1c0-4 6-30-10-57m-80 560c-65-22-109 12-117 53-3-1-17-14-20-23-4-4-10-20 6-40 9-9 32-21 37-20l4 6-3-7c105-30 165 24 158 88-4 27-26 53-37 79q-4-3-6-11c6-22 14-25 19-41 5-17 4-54-41-84m-6 86c-21 65-152 47-153 47 0 0-37-6-54-17l21-59 3 4c38 37 103 49 104 49 22 0 19 1 30-3l7-8c5-8 7-9 3-16-10-6-19-2-27-8-26-47 60-50 66-20 3 5 4 24 0 31m-236 220v-1q19-6 35-18c3 10 4 24 5 32l2 9c-7 0-24-4-36-2v-1zm-34-80-10 1c-4-22 8-47 18-57 10-13 30-18 31-19q14-2 29 2c-26 11-67 46-68 73m-28 186q-2 3-5 2-15-16-25-35-7-18 2-35 7-6 15-8l2-1h4v-1c12 0 26 1 29 13 5 7 5 22 2 27q-7 21-24 38m-3-116c-19-7-42-13-57-26l10-4 12-3c33-9 81-1 93 6-21 19-56 28-58 27m-91-141-5-3h4l1-1c48-7 72 38 69 76h-10l-5-18v-1c-18-32-48-48-54-53m26 148-8 22q-18 0-35 5c1-7 4-39 8-44l1 1c12 8 28 15 34 16m-282-212c7 16 23 29 11 46 0-1-29-53-34-65-10-25-3-54 13-75 22-25 39-26 45-30l8-1-1-1c8-1 39-10 84 1 48 12 76 48 32 87l-2 1c-26-111-192-54-156 37m-23-539q30 38 69 65c-9 9-10 9-26 8q-4-3-10-3c-51-24-47-67-33-70m-29-57c-44-30-33-78-3-84h-1q18-3 34 7c-5 7-16 13-25 35l-2 8c-4 15-2 29-2 34m-32 362c32 22 16 153 15 168-37-55-79-152-15-168m-235-22c2-24 12-75 32-89 48-11 3 94-32 90zm-14-413c-1-1-54-25-63-26l-7-3c1 0 73-4 84-3q-12 15-14 32m55 289c-27 0-23 7-26-2-9-24-2-49 7-73l33-18h1l-3 10h-1c-15 53-12 83-11 83m-15-180c10-13 34-26 41-27 28-13 97-12 136 13-49 44-272 125-177 14m133-156c28-50 112-46 127 5-18 0-91 7-115 61-2-2-28-25-12-66m-67 376c2 0 17 4 32 2-4 6-30 53-44 59 12-32 12-54 13-60zm50 46q7 19 10 37v-1c33 136-33 129-34 53-2-57 24-89 24-89m20-192c0 1-28 108-53 114q-6-1-11-4-15-17-16-41c-3-62 44-91 101-117-12 19-20 46-21 50zm61-30c-4 11-3 28-3 37l7 52 3 19c4 6 14 88 3 97q-3 10-12 15c-65 12-55-167 2-220m162-202c41-6 66 20 73 45-15-7-53-25-105-15l2-2c2-10 17-27 31-27zm82 115c4 21-9 41-17 46-18 6-39-8-40 1 0 11 112 60 144 47l24-2 1-1q13-2 25-7h1s40-19 60-47c2 1 55 70 154 56 34-5 111-37 99-48h-5c-11 4-32 3-39-7-48-64 75-111 105-76 86 100-160 210-230 181-28-3-65-18-78-26h-5l-6 3c-8 0-104 70-254-22-9-6-47-35-63-56-22-35-7-54-2-65l10-15c34-28 106-4 116 38m405-67c4-33 76-82 105-19-1 0-70-7-105 19m144 242c1 0 7 0 7-2-8 20-23 41-27 45l-43-12c0-1 13-22 15-31 21 7 49 1 48 0m7 196c-3 15-15 55-30 54-63-16 10-138 44-197 0 22-2 125-14 143m-116 26q-5 9-14 12c-45-10-75-62-88-108l4 3c26 17 125 60 98 93m-95-223c1 1 39-3 74-11l33-10c-5 56-102 65-106 22zm12 86-1-1 18-3q2-2 4-1c34 21 55 44 100 56l-6 17c-65-24-111-64-115-68m52-14c15-6 42-11 51-19l51 18c-1 4-18 25-21 34-37-5-81-33-81-33m-179 352c-24-8-43-6-52-2l-7 2c-20-10-28-18-33-27-17-51 30-94 37-164l11 25c12 33 0 74 22 8 1-4 10-29 14-33-2 36 37 99 40 136v-3c0 7 6 41-32 58m-6 43q-14 11-23 25l-3 5q-9-17-24-30c0-2 9-7 16-8 10-3 27-2 34 8M832 768c17 56 31 182-28 180-36-1-25-56-14-91 15-52 33-104 36-108l3 9q0 5 3 10m-18-138-1-2 5-1c3-2 61-17 72-7 13 10-1 31-16 40-19 13-48-3-60-30m94 56c6-1 16-7 28 4 29 25 17 57-18 131l-7-12c-19-45-53-107-3-123m34-47-3-8 3-7h-1c17-17 82 2 81 4-33 65-75 26-80 11m68 110c34 104 61 172 36 196-6 5-55 18-58-68-2-43 13-112 22-128m-465-65c2 2 81 137 69 170-4 33-50 63-65-86 0-1-6-67-4-84m13-57c20 6 37 11 57 5q6 17 17 31c-5 2-41 12-45 11-5-4-24-32-27-44zm48 75c47-15 50-20 54-18q24 11 50 18c-37 25-80 36-84 34zm57-95c35 12 67 19 106 23-2 29-29 27-35 28-7-1-36 0-59-24q-10-11-11-26zm-21 161 4-2q3 2 4 6l-1-4-1-3 5-1 1 1 1-2c19-3 60-37 83-50v-1c9-4 5 0 25 2-6 6-61 52-119 72l-5-16-1-2zm136-9c-5 14-14 42-32 66-9 12-32 37-46 39q-7 1-15-2c-53-37 60-80 93-103m-162 266c10-23 49-26 61-17 9 7 12 22 4 34-4 7-8 3-24 10-12 5 3 21 20 25 39 8 102-24 125-51l3 8h-1c5 14 13 42 20 51-39 27-165 25-198-14-11-11-18-30-10-46m604-439c2-4 49-37 67-67q2 0 3 2l4 7c2 3 2 14 1 16-5 25-42 66-75 42m196-181-4 5c-9-26-27-40-50-50l1-1-1 1-13-5-1-1s-25-6-52-6l1-1c4-18 30-35 50-37h1v-1c47-9 72 22 78 41 3 2 4 17 4 23l-1-4q-1 20-13 36m-58 354c-35-34 15-151 1-218l5 4c19 21 32 59 35 80 5 7 10 68 6 78-1 23-12 74-47 56m44-232-3-5c42 19 98 54 102 99 2 1 1 20 1 22l-1-10v9l-2 14c-2 12-11 38-26 29l-4-2c-26-19-33-78-66-156m38 238 4 3v1q12 20 16 44c6 10 8 69-3 80q-4 9-10 14-8 1-14-2c-27-24-3-106 7-140m18-46 14 3 18-2s2 38 12 57c-15-5-39-49-44-58m78-583q3 3 4 7a108 108 0 0 1 12 93c-3 11-12 30-21 40v1l-5 6c15-48 9-146 10-147m-3 234c62 48-54 61-73 66l-11 2 3-3c9-12 72-74 81-65m-39-266 3 12c6 12 1 85 1 86-29-80-91-110-118-133l-5-3c12 0 67-5 119 38m-125 98 9-77-1-1c41-4 80 39 65 74-55-4-59 3-74 5zm53 38c14 4 54 23 61 60 1-4 7 16-7 51-7-40-30-67-56-79-37-11-67-2-101 12l3-3c4-10 48-55 100-41M1303 67l-1-1c9 0 22 18 27 44h1a223 223 0 0 1 2 67c-26-5-35-6-62-2 39-55 28-96 33-108m-74 35c5-11 16-24 28-29q7 61-32 100l-3 3c-14-31 6-73 6-74m35 109c63-19 46 45 2 75-27 19-61 22-91 24 58-86 73-90 89-99m-74-115q1 55-44 85c0-18-6-47-9-55 0-6 40-29 53-30m-64 148c4-5 25-42 45-45q4-1 8 1 15 12 11 44h-1c-7 30-54 67-76 104v1l-5 8c-13-48 13-108 19-112m-67-62c5-24 11-27 26-34l12-3c15 55-23 135-27 167-2-9-17-105-11-130m-89 102c6-18 39-63 51-77-1 36 32 115 12 136-10 25-95 64-25 94l5 3q5-1 4-6c-6-33 38-45 44-12l1 1c2 17-7 34-19 47-34 34-98 10-109-39-9-33 22-121 36-147m-33-25c-3 3-3 5-16 39l-3 8-20-49c9 5 23 12 39 2M817 426c1 8-2 13 0 14 10 6 27-10 33-19 14-34-37-54-48-77-16-32 6-77 12-138l4 5v1a352 352 0 0 1 70 130c3 14 28 83 2 115-32 41-86 37-109-1-31-51 32-74 36-30m-83-257c1-4 2-25 4-26l1 1c2 1 30 2 35 32v-2c9 33-8 131-9 137-1-1-35-113-31-142m-36-44-6 24h-1l-3 30c-17-8-33-32-34-37q-10-16-9-47l-1-1c13 0 56 24 54 31m-36 73c26-1 55 55 62 85v-3c7 22 11 55 4 77-55-78-65-78-80-107-11-27 1-47 14-51M577 74l-1-3c31 15 47 72 35 104-7-6-17-20-19-23-3-1-27-48-16-78m84 236c-128 0-171-119-92-101 29 7 60 61 92 101M531 67l4 38c3 12 5 38 30 69 0 0-28-5-61 4v1h-1c0-1-12-96 28-112m-16 215c-15-7-24-8-30-11-7 0-93-24-122 61q-3 9-4 19c-5-9-15-37-3-64 10-23 44-44 66-48h-1c5 0 24-6 50 6h-1c20 6 38 29 45 37m-51-80c-34-9-65-2-73-3 0-5-9-23 9-45 14-18 33-26 42-27v-1l15-1v6l1 1c0 21 10 70 6 71m-125-96c18-14 47-29 58-30l2-1c12-3 27-10 63-9-49 32-98 68-120 122l-6 15c0-26-6-41 3-97m46 330c-1 0-78-10-99-32-2-4-6-8 2-20l16-14v-1c18-2 69 54 81 67m-86-299-1 13c-2 67 5 120 11 132-22-16-53-92-10-145m-65 39c-7 46 2 27-24 28 0 0 6-20 24-28m6 95 3 7c-36-15-42-28-47-46 22-8 36 17 44 39m-75-11q5 5 6 16c-5 0-10 3-15 0 0-4 5-14 9-16m0 40c53 0 82 15 96 29-2-2-112 15-116-3-3-11 7-24 20-25m-11 85c38 4 65 37 65 42-37-10-75-7-91-42 6-4 25 0 26 0m-48-23q2-10 7-18l3 3 10 9-21 8zm-4 40c28 30 23 30 12 34l-30 6c-1-5 7-29 18-40m11 311c0 28-2 32-2 43-15-22-38-90-19-135l3 2q12 15 15 34h1c4 23 4 53 2 56M78 573l-7 12c-1-1 0-31 9-79 14 0 23 3 41 6q-26 28-43 61m36-88-5-3q-8-6-9-16 9-5 19-7c15-3 64-11 67 7-23 9-46 24-72 19m21 93q-3-11 0-21c-2-35 67-69 100-71l13-2c-33 35-54 91-111 95zm18 50c4-4 31-10 35-11l1-1c12-2 29-7 31-9l12-3c-9 39-37 69-71 86-2-14 5-21-8-62m36 210-3 23c-33-46-71-114-17-129 9-1 17 21 19 33v-3c5 27 3 72 1 76m4-134 38-22c2 11 4 14-7 67a95 95 0 0 0-31-45m41 219-4 6c-3-21-8-47 0-67 2-19 41-29 101-48-3 16-4 41-3 52-59 9-76 33-94 56m44 56c-39-29 22-79 51-84v-1h3c4 15 16 25 25 35-29 8-66 22-79 50m55 50q-9-6-16-15c-28-43 79-85 108-38-12 0-39 7-58 17-24 13-31 31-34 36m52 44c-62-47 65-93 82-44-2 0-61 14-82 44m57 5c63-49 134 90 160 162-93-63-177-139-160-162m181 108-21-50 62-1c-2 7-8 10-37 45zm34 57q0 3-4 4c0-58 34-93 47-95v-1h14c19 16-38 76-57 92m98 121-3 4c-10-4-28-15-34-24l-2-3c14 3 36-3 43-3 3 9-1 18-4 26m-11-54c-20 4-46-10-48-13l18-9c22-11 32-10 37-11 19 1 14 30-7 33m-48-43c26-46 73-66 78-53 14 28-47 45-78 53m100-88c-27-9-14-4-28-5l1-1v-23c5 1 56 0 65 55l1 5-15 6v-1c-7-19-8-24-24-36m11 162 1-16h-1c8-5 29-8 35-8l8 31c-21 0-24-2-45 8zm114 192-3 5c-48-65-117-120-105-143 7-13 27-16 41-15 40 4 57 75 63 84l4-8 10-27c29-64 85-54 91-33 7 29-62 83-101 137m92-185q-14-1-28 1c5-20 6-26 6-31h1c10-3 30 3 34 4v15l3 17q-7-4-16-6m4-140-2 6-16-6h1c5-48 49-54 52-55l9-2 4-1q-1 12 1 24c-20 0-41 11-49 34m45 4c19-13 65 30 72 46v-1l3 8c-4-1-45-14-62-23-10-5-21-13-13-30m21 157c-5-8-13-23-7-31l-1-2c1 0 19 4 43 6q-14 18-35 27m58-71c-44 29-79 1-67-15 18-14 48 3 68 14zm40-53c-12-7-61-56-65-85l2-6c30-22 67 54 63 91m31-59-41-50c13-3 51 1 61 0zm24 53-4 4c19-52 72-161 127-176 20-3 32 5 35 13 9 40-122 136-158 159m228-181-1-2c0 6-6 11-10 15l-2 2a133 133 0 0 0-83-44c31-42 111-14 96 29m40-29q-2 1-3-1c-18-38-51-47-91-53l2-1c4-7 20-16 27-16 55-13 115 36 65 71m62-61-6 9c-5 5 0 2-13-14q-19-19-40-26-13-6-28-9l2-1c11-15 7-5 22-31v-3c26 5 58 31 64 54 3 3 3 17-1 21m39-39c-31-41-43-46-43-46-18-10-23-10-32-13l-5-1-19-3v-1c1-20-1-49-1-49l-2-3c103 31 113 28 102 116m71-276q-3 18-1 35c-40-18-74-67-70-83l-2-3c116 35 69 12 74 51m-38 55a83 83 0 0 0-28 42c-3-14-11-56-6-70l37 22q0 5-3 6m14 148-3 4c-6-19-15-119 17-129 9-2 20 10 23 18 11 8 1 55-37 106m47-277c-33-2-61-30-64-36-8-5-48-59-49-60 49 6 112 30 114 75q3 12-1 21m-49-116c4-8 68-15 85 3-7 24-15 22-33 18-6-1-54-16-52-21m80 282-6 12c-4-37-12-114 19-135 14 43 4 81-13 123m33-162c-25-44-37-58-47-70l8-2 14-3 17-2q7 39 8 77"/>
</svg>