<svg xmlns="http://www.w3.org/2000/svg" width="931.25" height="931.25">
    <g style="stroke:#000;fill:none;stroke-width:10;stroke-linejoin:miter;stroke-miterlimit:4;stroke-opacity:1;stroke-dasharray:none">
        <path d="M781.3 480.6a397 397 0 1 1-794 0 397 397 0 0 1 794 0z" style="stroke-linecap:round;stroke-dashoffset:21.40240054" transform="translate(60.1 -41.8)scale(1.05528)"/>
        <path d="M845 502.8a460.6 460.6 0 1 1-921.3 0 460.6 460.6 0 0 1 921.2 0z" style="stroke-linecap:round;stroke-dashoffset:21.40240054" transform="matrix(1 0 0 -1 81.3 968.5)"/>
        <path d="M268.8 753.7h-51m-32-40.2 51.2.2M111.2 556l-31.8-40m77-156 11.3-50m170.9-37.3 46.2-22.1m171.8 82.8-46-22.1m11.3 49.7 45.9 22.1m41.1 183-11.2-50M577 606.2l-11.3-50m-106.6 198L491 714M338.6 905.4l-121-151.8-192.7-.3 43-187.6L-52 415l173.7-83 43-187.7 174 83.9L514 144.5l42.6 188.8 171.8 82.9L609 566l42.4 188.4-192.2-.3zm0-64.2 69.5-87.2-139.2-.3zm262.8-126.9L577 606.1l-86 108zm-161.5-.2 125.9-158-44-195.1-183.2-88.4-182.3 87.2-45 196L237 713.6zm-254.1-.5-86-108-24.7 107.8q55.4 0 110.7.2zm412-197.6 68.1-85.5-98.1-47.4zm-518.4-.2 30.8-134-99.6 47.7zm431.2-204.6-24.6-109-101.2 48.4zM167.7 310l124.7-59.6-100-48.2zm240.4 444 31.8-40.1M338.6 228.3l-46.3 22.2M121.6 332l-11.4 49.9M67.9 565.7l32 40" style="stroke-linecap:butt" transform="translate(127 -37.2)"/>
    </g>
</svg>