<svg xmlns="http://www.w3.org/2000/svg" width="1706.7" height="1685.3" version="1.0" viewBox="0 0 1280 1264" fill="#000">
    <path d="M592.5 1.5c-24.8 2.1-38 3.9-37.8 5.1.1.7-5.6 1.8-14.8 2.9-8.3.9-19 2.5-23.7 3.5A765 765 0 0 0 456 28.1l-26.4 8.1a597 597 0 0 0-149.3 71.9 813 813 0 0 0-77.3 60 1043 1043 0 0 0-65.9 65.9 542 542 0 0 0-69.2 99.5c-7.7 14.8-26.7 56.3-32.4 70.5A645 645 0 0 0 6.6 507a296 296 0 0 0-6.1 65c0 24.6.7 32.4 2.7 31.8 1.9-.7 3.7-7.2 7.8-27.8l4.8-24.5c.8-3.9.9-2.5.4 6.5-.4 6.3-.7 21.9-.7 34.7 0 25.5.6 28.2 4.5 21.6 1.7-2.7 2.9-7.9 4.6-18.8l2.3-15-.6 19.1q-.5 19.2.7 28.3c1.3 9.1 1.3 9.2 2.6 6.1 1-2.3 3.4-22.7 3.4-28.6q.1-.3 1.5-.4c2.5 0 6.4-15.2 12.6-49.1a1155 1155 0 0 1 8.9-45.5c3.5-14.6 7.9-29.8 8.5-29.2.3.2-.2 3.9-1 8.2-1.8 9.2-1.7 8.6-.5 8.6q1-.1 1-1.8 0-1.8 1.6 1.1c.8 1.5 1.9 2.5 2.5 2.2.5-.4 2.5-3.7 4.4-7.3 2-4 3.4-5.9 3.5-4.7 0 1.2.4 2.5.9 3s.5 5.9 0 12c-1.1 15.3.4 27.5 3.3 27.5 1.3 0 4.2-7.1 10.8-26.8 6.7-19.5 7.1-20.4 8-17.7.5 1.4 1.5.1 4-5.6 7.5-16.5 28.5-57.3 36.5-70.7 10.1-17.1 15.5-24.9 42.7-61.3 29.2-39 41.9-54.4 67.2-80.9q18.7-19.6 6.6-4.5c-14.3 18.1-21.4 31.5-16.6 31.5q2.6 0 32.1-24.9c59.3-50.4 99.5-77.8 150.7-102.5A524 524 0 0 1 602 116.8c16.8-1.7 79.3-1.7 96 0a531 531 0 0 1 454.4 363.9 544 544 0 0 1 23.8 117.8 771 771 0 0 1 0 86 550 550 0 0 1-55.7 196 539 539 0 0 1-183 209c-88.3 59.5-187.1 89.9-302.5 93.1-91.7 2.6-178.5-17.4-267-61.6-14.1-7-10.6-3.8 5 4.6a556 556 0 0 0 214 63.6 981 981 0 0 0 100 0c135.7-13.2 251.1-66.7 347.4-161.2a761 761 0 0 0 28.9-30c13.7-15.6 14.6-16.4 7.1-6-1.8 2.5-3.2 5.3-3.1 6.2.3 2.3-22.5 27.8-40 44.9a560 560 0 0 1-126.3 93.2 561 561 0 0 1-106.1 39.6c-43.2 11.2-75.9 15.7-131.9 18.1-14 .6-29.2 1.5-33.7 2.1-20.3 2.4-78.1-4.1-116.3-13.2a591 591 0 0 1-242.5-122.5 963 963 0 0 1-58.6-56.9 472 472 0 0 1-44.9-56.3c-3.5-5.1-6.5-9-6.8-8.7-1.5 1.5 24.5 36.8 40.9 55.6l16.2 18.7c11 12.7 43 43.8 57.2 55.8a568 568 0 0 0 263 123.9l19 3.4q4.6.8 2.3 1a561 561 0 0 1-170.3-51.5 565 565 0 0 1-209.3-173.2c-5.8-7.8-10.7-14-11-13.7-.6.5 6.8 11 17.7 25a572 572 0 0 0 180.6 153.2 587 587 0 0 0 292.5 67.9c13.5-.3 28.3-.8 33-1.1l8.5-.4-8.8 1.4c-16.2 2.5-41 3.8-68.7 3.8-62-.1-108.7-7.4-162-25.3a612 612 0 0 1-146-73.6c-101.3-70.9-177.9-170.1-216.9-280.7-6.5-18.6-8.4-17.7-2.2 1 31.1 94.4 92.5 185.3 171.3 253.8 4.3 3.7 7.8 7 7.8 7.2s-2.6-1.6-5.7-4.3a593 593 0 0 1-154-198.4 569 569 0 0 0-16.9-32q-1.6-2-1.4.5c0 2.4 1.9 8.7 5.4 17.9 1.4 3.7 2.4 7.2 2.1 7.7-1.7 2.7 30 59.4 49.6 88.6A607 607 0 0 0 289.5 1113c14.6 10.9 41.9 29 58 38.4 16.4 9.5 18.4 11 7 5a578 578 0 0 1-93-63.4 587 587 0 0 1-114.3-126.8c-11.6-17.2-23.5-37.2-22.8-37.9.8-.8-5.4-12.6-7.9-14.8a43 43 0 0 1-5.4-10c-1.8-4.4-5.7-12.5-8.6-18-10.7-20-26.4-63.6-35-96.9-11-42.8-16.5-79-18.5-123.1-1.4-29.2-1.7-31.4-1.8-13.5-.5 43.4 8 100.4 22.3 150.1a601 601 0 0 0 74.1 161.6 85 85 0 0 1 8.9 15.4c-1.2 1.8 13 21.2 37.5 51.3q2.6 3.2-4-2.3-11-9.2-4.1 2.2l3.1 5.2-4.6-5a661 661 0 0 1-37.6-47.5 637 637 0 0 1-84.7-166.5l-1.1-3 .4 3.5c.2 1.9 3.2 11.4 6.6 21a616 616 0 0 0 198 276.5 665 665 0 0 0 57 42 588 588 0 0 0 287.2 97.5c21.6 1.5 65.6 1.2 87.9-.6 75.1-6 149.3-26.2 216.8-59a668 668 0 0 0 158.8-107.8c5.7-5.3 10.5-9.6 10.7-9.6 1.7 0-3.7 7-10.2 13.1A622 622 0 0 1 651 1256.5a615 615 0 0 1-278.4-61.5 623 623 0 0 1-228.9-188A616 616 0 0 1 22 708c-2.9-23.8-5.1-38-6-38.5-3-1.8-1.6 31.3 2.5 58.8A622 622 0 0 0 385 1208.8q166.4 73.5 351 47.1a640 640 0 0 0 214.4-72.9 629 629 0 0 0 300.1-380.5c15.5-55.4 22.3-105.3 23.9-175.5.1-7.4.2 2.5 0 22q-.2 35.5-1.8 51a636 636 0 0 1-95.7 280.9c-6 9.6-10.8 17.6-10.5 17.8.7.8 7.3-8.1 15.4-20.7a627 627 0 0 0 92.6-258c4.8-37 6.5-93 3.7-126.5a623 623 0 0 0-48.1-200 415 415 0 0 1-8.2-20.9c-15.4-45.8-53.7-109.6-95.8-159.6a657 657 0 0 0-62.5-62.4A565 565 0 0 0 980 92.1a781 781 0 0 0-85-39.6l-29.5-11.7A587 587 0 0 0 702 2.4c-23-2.3-86.4-2.8-109.5-.9m-179 50.2A679 679 0 0 0 225 164.9a855 855 0 0 0-54 52.6q-13.7 15 .9-3c26.1-32.2 76.8-74.9 125.6-105.7a678 678 0 0 1 108-55.4c9-3.3 15.6-4.7 8-1.7m-81.4 57.7c-.7.8-5.3 3.9-10.4 6.9a597 597 0 0 0-115.2 91.9c-10.7 11.4-41.2 40.8-37.1 35.8a627 627 0 0 1 163.4-136q.3.1-.7 1.4M115 314.5a426 426 0 0 0-24.9 48.6 98 98 0 0 1-7.7 14.7c-3.9 4.2-26.1 55.3-32.4 74.7-2.1 6.7-4 10.3-4 7.8 0-3.8 14-42.2 22.5-61.9a690 690 0 0 1 42.1-79.7c2.5-4 4.4-5.9 4.4-4.2m-43.6 95.2A748 748 0 0 0 44.7 490c-3.7 15-8.2 39.6-11.6 62.8a89 89 0 0 1-2.9 14.5c-.5.7-1.2 2.1-1.5 3.2-1.2 4.1.5-9.6 3.9-31.6a474 474 0 0 1 16.3-71c7.4-24.8 24.9-70.9 25.8-68.2.2.6-1.3 5.1-3.3 10M17.7 545.2q-.5 1.1-.6-.6t.5-1.3c.3.3.4 1.2.1 1.9m12.8 35.7c-.4 2.5-1 4-1.2 3.3a22 22 0 0 1 .3-7q.7-5.5 1.2-3.3c.2 1.3.1 4.5-.3 7m218.1 503.2A591 591 0 0 0 570.3 1227c14 1.8 19.7 2.9 31.2 5.9 5.7 1.5-8.3.6-29.1-1.9a589 589 0 0 1-350.9-171.1l-12-12.3 13.6 13c7.4 7.2 18.9 17.7 25.5 23.5m317.7 113.6c-.7.2-2.1.2-3 0q-1.4-.5 1.2-.5t1.8.5"/>
    <path d="M1148.9 1022.7a631 631 0 0 1-149.4 137.8 627 627 0 0 1-261.5 99.4c-20 2.8-22.8 3.3-21.2 3.8 2 .8 33.1-3.6 52.7-7.3a635 635 0 0 0 262-116.5 632 632 0 0 0 96.3-89.3c12.8-14.7 27.6-33.5 26.9-34.2-.2-.3-2.9 2.6-5.8 6.3"/>
</svg>