<svg xmlns="http://www.w3.org/2000/svg" width="1691" height="1707" version="1.0" viewBox="0 0 1268 1280" fill="#000">
    <path d="m588.5.6-18 1.4a653 653 0 0 0-170.3 37.6A649 649 0 0 0 103.3 263a381 381 0 0 0-43.4 74.2A635 635 0 0 0 1.5 557.5c-2.2 26.9-1.7 32.3 1 10.8a649 649 0 0 1 54.1-188.4A632 632 0 0 1 282 119.5a504 504 0 0 1 66-38.3 633 633 0 0 1 232.5-63.4c22.2-1.9 79.5-1.6 102.5.5A629 629 0 0 1 796.3 1251a677 677 0 0 1-123.8 21.2 891 891 0 0 1-91-.1 615 615 0 0 1-194-45.7 936 936 0 0 1-77-38.4A636 636 0 0 1 73.1 941.3a698 698 0 0 1-50.6-126c-1.6-5.7-3-10.1-3.2-9.9-.8.7 5.7 23.6 11.7 41.8a645 645 0 0 0 120.6 212.3 791 791 0 0 0 58.8 59.9 634 634 0 0 0 483.6 157 636 636 0 0 0 483.5-306.8c49.3-82 77.8-169.2 88.2-269.6 1.3-12.5 1.7-26.2 1.7-56.5.1-40.7-.5-52.4-4.5-83a640 640 0 0 0-251.7-431.8A640 640 0 0 0 717.9 6.6 533 533 0 0 0 630 .5c-20.6-.2-39.3-.1-41.5.1"/>
    <path d="M587.6 32c-42.9 2.8-90 10.8-130.4 22.1A621 621 0 0 0 82.3 354.5c-23.1 42.9-43.3 112.2-51.8 178q-3.8 29.3 2.9-4A606 606 0 0 1 254 169.1a756 756 0 0 1 71.9-48.6 606 606 0 0 1 863.7 299 613 613 0 0 1 40.9 169.5c2 19.6 2.8 77.3 1.4 96.5a603 603 0 0 1-61.5 227.5 591 591 0 0 1-113.9 159c-16.2 16.5-17.3 17.8-7.3 8.7a622 622 0 0 0 67.3-76.2 626 626 0 0 0 92.8-182.6 603 603 0 0 0 25.3-127.4c2.1-22.1 2.4-80.3.5-100.5a601 601 0 0 0-60.1-218.6 598 598 0 0 0-164.6-207.6C916.2 91 804 45.7 678 33.5a882 882 0 0 0-90.4-1.5"/>
    <path d="M583.1 59a589 589 0 0 0-225.6 62.8A603 603 0 0 0 244.9 196a682 682 0 0 0-70.1 71A586 586 0 0 0 71.4 507.9q-5.1 28.5 1.6.6a576 576 0 0 1 72-168.6A576 576 0 0 1 388 127a560 560 0 0 1 187-50.2c19.6-2 90.3-1.7 110 .5 99.2 11.2 181.1 40.7 260.9 94a586 586 0 0 1 137.7 130.2C1149.4 389 1186.9 488 1197.1 601c1.6 17.8 1.7 68.6.1 87.5a571 571 0 0 1-131.1 322 762 762 0 0 1-70.6 70.9A572 572 0 0 1 687 1212.5a804 804 0 0 1-95 1.6 571 571 0 0 1-245.6-72.7 814 814 0 0 1-64.9-43.4 573 573 0 0 1-185-245.5 576 576 0 0 1-30.9-113c-3.3-19.9-3.6-21.1-3-13.5.7 9 4.9 32.8 8.5 49a574.5 574.5 0 0 0 502.4 443.6 878 878 0 0 0 97.6 1.5 576 576 0 0 0 369.4-168.5 580 580 0 0 0 163.4-325.1 494 494 0 0 0 5.5-85c0-37.5-1-53.7-5.5-85a586 586 0 0 0-135.8-296A584 584 0 0 0 676 59.9c-13.6-1.4-78.2-2-92.9-.9"/>
    <path d="M584 94.1a555 555 0 0 0-442 280.1c-14.8 26-31 72-40.3 114.3a497 497 0 0 0-9.1 53.1c-.5 5.7 0 4.2 2.8-8.6a548 548 0 0 1 117.8-239.2c14.3-17 47.7-50.4 63.8-63.8a546 546 0 0 1 275.5-122.9 454 454 0 0 1 62.5-4.8 542 542 0 0 1 305.5 85.1 530 530 0 0 1 96 78.7A540 540 0 0 1 1167.4 709a540 540 0 0 1-160.8 325.5c-8.9 8.8-12.9 13.2-9.1 9.8a697 697 0 0 0 46.1-47.3 564 564 0 0 0 102.7-181 542 542 0 0 0 28.3-189 521 521 0 0 0-28-158.6 549 549 0 0 0-190.8-265A556 556 0 0 0 673.5 95a989 989 0 0 0-89.5-.9"/>
    <path d="M593 124.1a524 524 0 0 0-413.8 246.6 250 250 0 0 0-23.5 46.8A512 512 0 0 0 124.1 539a530 530 0 0 0-4.2 89c.2 14.8 1.9 10.8 2-4.8.3-42.6 12.4-104.4 29.8-151.5a510 510 0 0 1 269.8-288.8 506 506 0 0 1 330.2-28.3c36 8.9 66.5 20 98.8 35.9 48.9 24 89.6 53 129.4 92 83.6 82 134 180.7 149.1 292a525 525 0 0 1 2 124.5 502 502 0 0 1-146.4 304.5 500 500 0 0 1-296.1 143.4 594 594 0 0 1-102.5 2.2 490 490 0 0 1-177.5-48.5A508 508 0 0 1 153 819.2a23 23 0 0 0-2.7-5.9c-.2.3 1.6 5.8 4.1 12.3A517 517 0 0 0 246.9 981a560 560 0 0 0 81.3 75.1 516 516 0 0 0 146.3 75.2 512 512 0 0 0 542.2-149.8A519 519 0 0 0 1132 755.7a520 520 0 0 0-42.5-346.6 526 526 0 0 0-187.4-206 523 523 0 0 0-309.1-79M60.2 707.5q0 2.6.5 1.2c.2-.9.2-2.3 0-3q-.5-.8-.5 1.8m1 8.5q0 3 .5 1.7c.2-.9.2-2.5 0-3.5q-.5-1.2-.5 1.8m-43.1 86.6q0 1.7.6.6.4-1.3-.1-1.9t-.5 1.3"/>
</svg>