<?xml version="1.0" encoding="utf-8"?>
<svg width="32" height="32" version="1" xmlns="http://www.w3.org/2000/svg">
  <rect style="opacity:0.2" width="28" height="18" x="2" y="11" rx="1.4" ry="1.4"/>
  <path style="fill:#fab387" d="M 2,22.6 C 2,23.376 2.6244,24 3.4,24 H 28.6 C 29.376,24 30,23.376 30,22.6 V 7.4 C 30,6.6244 29.376,6 28.6,6 H 16 C 13.9,6 13.2,3 11.1,3 H 3.4 C 2.6244,3 2,3.6244 2,4.4"/>
  <rect style="opacity:0.2" width="28" height="18" x="2" y="9" rx="1.4" ry="1.4"/>
  <rect style="fill:#e4e4e4" width="24" height="11" x="4" y="8" rx="1.4" ry="1.4"/>
  <rect style="fill:#404059" width="28" height="18" x="2" y="10" rx="1.4" ry="1.4"/>
  <path style="opacity:0.1;fill:#ffffff" d="M 3.4004,3 C 2.6248,3 2,3.6248 2,4.4004 V 5.4004 C 2,4.6248 2.6248,4 3.4004,4 H 11.1 C 13.2,4 13.9,7 16,7 H 28.6 C 29.375,7 30,7.6248 30,8.4004 V 7.4004 C 30,6.6248 29.375,6 28.6,6 H 16 C 13.9,6 13.2,3 11.1,3 Z"/>
  <path style="fill: rgb(250, 179, 135);" d="M 12.726 24.466 C 12.445 24.466 12.221 24.237 12.221 23.95 L 12.221 14.677 C 12.221 14.392 12.445 14.163 12.726 14.163 L 19.809 14.163 C 20.09 14.163 20.315 14.392 20.315 14.677 L 20.315 21.522 L 17.371 24.466 L 12.726 24.466 Z"/>
  <path style="border-block-color: rgb(68, 68, 68); border-color: rgb(68, 68, 68); border-inline-color: rgb(68, 68, 68); caret-color: rgb(68, 68, 68); color: rgb(68, 68, 68); column-rule-color: rgb(68, 68, 68); outline-color: rgb(68, 68, 68); text-decoration: none solid rgb(68, 68, 68); text-emphasis-color: rgb(68, 68, 68); -webkit-text-fill-color: rgb(68, 68, 68); -webkit-text-stroke-color: rgb(68, 68, 68); fill: rgb(64, 64, 89);" class="ColorScheme-Text" d="M 18.581 16.076 C 18.581 16.076 18.342 15.837 18.104 16.076 L 17.256 16.923 L 18.687 18.354 L 19.534 17.506 C 19.773 17.268 19.534 17.029 19.534 17.029 L 18.581 16.076 Z M 16.778 17.4 L 12.962 21.217 L 12.962 22.648 L 14.393 22.648 L 18.21 18.832 L 16.778 17.4 Z"/>
</svg>