<?xml version="1.0" encoding="utf-8"?>
<svg xmlns="http://www.w3.org/2000/svg" width="24" height="24" version="1">
  <rect style="opacity:0.2" width="20" height="20" x="2" y="2.5" rx="10" ry="10"/>
  <rect style="fill:#295f6e" width="20" height="20" x="2" y="2" rx="10" ry="10"/>
  <g transform="matrix(1, 0, 0, 1, 0, 1.909369)">
    <path style="opacity:0.2" d="M 7.4686685,8.4941405 A 0.50005,0.50005 0 0 0 7.0712075,9.256836 l 1.013672,1.689453 C 6.9325145,11.929275 6.153375,13.333536 6.000895,14.922852 5.973335,15.500331 6.5829265,15.5 6.5829265,15.5 H 17.402262 c 0,0 0.627077,-1.26e-4 0.59668,-0.606445 -0.159116,-1.578226 -0.936531,-2.972239 -2.083008,-3.949219 l 1.012695,-1.6875 A 0.50005,0.50005 0 0 0 16.51652,8.4941405 0.50005,0.50005 0 0 0 16.071207,8.743164 l -0.968749,1.615235 C 14.195907,9.815596 13.135839,9.5 12.000895,9.5 10.865139,9.5 9.805185,9.8157765 8.898356,10.359375 L 7.9286295,8.743164 A 0.50005,0.50005 0 0 0 7.518473,8.4941405 a 0.50005,0.50005 0 0 0 -0.049805,0 z M 9.2499185,12.5 a 0.75,0.75 0 0 1 0.75,0.75 0.75,0.75 0 0 1 -0.75,0.75 0.75,0.75 0 0 1 -0.75,-0.75 0.75,0.75 0 0 1 0.75,-0.75 z m 5.5000005,0 a 0.75,0.75 0 0 1 0.75,0.75 0.75,0.75 0 0 1 -0.75,0.75 0.75,0.75 0 0 1 -0.75,-0.75 0.75,0.75 0 0 1 0.75,-0.75 z"/>
    <path style="fill:none;stroke:#30dd81;stroke-linecap:round" d="m 8.6999185,10.5 -1.2,-2"/>
    <path style="fill:none;stroke:#30dd81;stroke-linecap:round" d="m 15.299919,10.5 1.199999,-2"/>
    <path style="fill:#30dd81" d="m 12.000895,9 c -3.133457,0 -5.7080735,2.380072 -6,5.422852 C 5.973335,15.000331 6.5829265,15 6.5829265,15 H 17.402262 c 0,0 0.627077,-1.26e-4 0.59668,-0.606445 C 17.693564,11.364591 15.124445,9 12.000895,9 Z"/>
    <path style="opacity:0.2" d="M 9.25,12.5 A 0.75,0.75 0 0 0 8.5,13.25 0.75,0.75 0 0 0 9.25,14 0.75,0.75 0 0 0 10,13.25 0.75,0.75 0 0 0 9.25,12.5 Z m 5.5,0 A 0.75,0.75 0 0 0 14,13.25 0.75,0.75 0 0 0 14.75,14 0.75,0.75 0 0 0 15.5,13.25 0.75,0.75 0 0 0 14.75,12.5 Z"/>
    <path style="fill:#ffffff" d="m 9.2499185,12 a 0.75,0.75 0 0 1 0.75,0.75 0.75,0.75 0 0 1 -0.75,0.75 0.75,0.75 0 0 1 -0.75,-0.75 0.75,0.75 0 0 1 0.75,-0.75 z"/>
    <path style="fill:#ffffff" d="m 14.749919,12 a 0.75,0.75 0 0 1 0.75,0.75 0.75,0.75 0 0 1 -0.75,0.75 0.75,0.75 0 0 1 -0.75,-0.75 0.75,0.75 0 0 1 0.75,-0.75 z"/>
  </g>
  <path style="opacity:0.1;fill:#ffffff" d="M 12,2 C 6.46,2 2,6.46 2,12 2,12.08394 2.00382,12.166571 2.00586,12.25 2.1381952,6.8269315 6.543937,2.5 12,2.5 c 5.456063,0 9.861805,4.3269315 9.99414,9.75 C 21.996176,12.166571 22,12.083937 22,12 22,6.46 17.54,2 12,2 Z"/>
  <g transform="matrix(0.761773, 0, 0, 0.761773, -2.365175, -7.433762)" style="">
    <circle style="fill: rgb(244, 67, 54); stroke-width: 1;" cx="18.884" cy="17.645" r="5.873"/>
    <path style="opacity: 0.2; fill: rgb(255, 255, 255); stroke-width: 1;" d="M 18.884 11.772 C 15.64 11.772 13.011 14.401 13.011 17.645 C 13.012 17.702 13.015 17.759 13.017 17.816 C 13.084 14.623 15.69 12.069 18.884 12.066 C 22.059 12.068 24.658 14.593 24.75 17.768 C 24.753 17.727 24.755 17.686 24.757 17.645 C 24.757 14.401 22.128 11.772 18.884 11.772 Z"/>
    <path style="opacity: 0.2; stroke-width: 1;" d="M 24.751 17.768 C 24.684 20.961 22.078 23.516 18.884 23.518 C 15.708 23.516 13.11 20.99 13.017 17.816 C 13.015 17.857 13.013 17.898 13.011 17.939 C 13.011 21.182 15.64 23.812 18.884 23.812 C 22.128 23.812 24.757 21.182 24.757 17.939 C 24.756 17.882 24.754 17.825 24.751 17.768 Z"/>
    <path style="opacity: 0.2; stroke-width: 1;" d="M 18.876 13.24 C 18.552 13.245 18.293 13.51 18.297 13.833 L 18.297 17.345 C 18.29 17.796 18.776 18.084 19.171 17.865 C 19.359 17.759 19.474 17.56 19.471 17.345 L 19.471 13.833 C 19.476 13.504 19.206 13.236 18.876 13.24 Z M 16.904 14.415 C 16.792 14.42 16.683 14.455 16.591 14.519 C 15.095 15.525 14.428 17.397 14.948 19.124 C 15.469 20.851 17.06 22.04 18.862 22.05 C 20.665 22.059 22.268 20.887 22.807 19.165 C 23.346 17.444 22.698 15.566 21.213 14.544 C 20.85 14.274 20.331 14.499 20.279 14.948 C 20.253 15.172 20.357 15.391 20.547 15.512 C 21.612 16.244 22.072 17.58 21.686 18.814 C 21.3 20.048 20.16 20.881 18.869 20.874 C 17.577 20.867 16.447 20.022 16.073 18.785 C 15.7 17.547 16.174 16.216 17.246 15.495 C 17.624 15.247 17.592 14.682 17.189 14.478 C 17.101 14.434 17.003 14.412 16.904 14.415 Z"/>
    <path style="fill: rgb(255, 255, 255); stroke-width: 1;" d="M 18.876 12.947 C 18.552 12.951 18.293 13.217 18.297 13.54 L 18.297 17.052 C 18.29 17.502 18.776 17.791 19.171 17.571 C 19.359 17.466 19.474 17.267 19.471 17.052 L 19.471 13.54 C 19.476 13.21 19.206 12.942 18.876 12.947 Z M 16.904 14.122 C 16.792 14.126 16.683 14.162 16.591 14.226 C 15.095 15.232 14.428 17.103 14.948 18.831 C 15.469 20.557 17.06 21.747 18.862 21.756 C 20.665 21.765 22.268 20.593 22.807 18.872 C 23.346 17.15 22.698 15.272 21.213 14.25 C 20.85 13.98 20.331 14.205 20.279 14.654 C 20.253 14.879 20.357 15.098 20.547 15.218 C 21.612 15.951 22.072 17.287 21.686 18.52 C 21.3 19.754 20.16 20.587 18.869 20.58 C 17.577 20.574 16.447 19.729 16.073 18.491 C 15.7 17.253 16.174 15.922 17.246 15.201 C 17.624 14.953 17.592 14.388 17.189 14.185 C 17.101 14.14 17.003 14.118 16.904 14.122 Z"/>
  </g>
</svg>