<?xml version="1.0" encoding="utf-8"?>
<svg xmlns="http://www.w3.org/2000/svg" width="24" height="24" version="1.1">
  <path style="opacity:0.2" d="M 4.9453125,1.5019531 A 1,1 0 0 0 4.4003906,1.6992188 1,1 0 0 0 4.1992188,3.0996094 L 6.2558594,5.8417969 C 4.6215373,7.2686 3.4801961,9.2456776 3.1210938,11.484375 3.110689,11.54924 3.1094466,11.61621 3.1132812,11.683594 A 9.5,9.5 0 0 0 3,13 9.5,9.5 0 0 0 12.5,22.5 9.5,9.5 0 0 0 22,13 9.5,9.5 0 0 0 21.894531,11.662109 c 0.0029,-0.03705 0.0017,-0.07476 -0.0039,-0.111328 -0.347044,-2.266349 -1.495642,-4.2680178 -3.14649,-5.7089841 l 2.05664,-2.7421875 A 1,1 0 0 0 20.599609,1.6992188 1,1 0 0 0 19.859375,1.5097656 1,1 0 0 0 19.199219,1.9003906 L 17.107422,4.6914062 C 15.742762,3.9331275 14.171876,3.5 12.5,3.5 10.828316,3.5 9.2590809,3.9332902 7.8945312,4.6914062 L 5.8007812,1.9003906 A 1,1 0 0 0 5.140625,1.5097656 1,1 0 0 0 4.9453125,1.5019531 Z"/>
  <circle style="fill: rgb(244, 67, 54); stroke-width: 1;" cx="12.505" cy="12.52" r="9.505"/>
  <path style="fill:#37ce87" d="M 21.89 11.05 C 21.962 11.523 17.95 13.116 12.703 13.116 C 7.456 13.116 3.041 11.477 3.12 10.984 C 3.846 6.458 7.769 3 12.5 3 C 17.254 3 21.192 6.492 21.89 11.05 Z"/>
  <path style="fill:none;stroke:#37ce87;stroke-width:2;stroke-linecap:round;stroke-linejoin:round" d="M 5,2 8,6"/>
  <path style="fill:none;stroke:#37ce87;stroke-width:2;stroke-linecap:round;stroke-linejoin:round" d="M 20,2 17,6"/>
  <path style="fill:#ffffff;opacity:0.2" d="M 4.9453125 1.0019531 A 1 1 0 0 0 4.4003906 1.1992188 A 1 1 0 0 0 4.0410156 2.2675781 A 1 1 0 0 1 4.4003906 1.6992188 A 1 1 0 0 1 4.9453125 1.5019531 A 1 1 0 0 1 5.140625 1.5097656 A 1 1 0 0 1 5.8007812 1.9003906 L 7.8945312 4.6914062 C 9.2590809 3.9332902 10.828316 3.5 12.5 3.5 C 14.171876 3.5 15.742762 3.9331275 17.107422 4.6914062 L 19.199219 1.9003906 A 1 1 0 0 1 19.859375 1.5097656 A 1 1 0 0 1 20.599609 1.6992188 A 1 1 0 0 1 20.964844 2.25 A 1 1 0 0 0 20.599609 1.1992188 A 1 1 0 0 0 19.859375 1.0097656 A 1 1 0 0 0 19.199219 1.4003906 L 17.107422 4.1914062 C 15.742762 3.4331275 14.171876 3 12.5 3 C 10.828316 3 9.2590809 3.4332902 7.8945312 4.1914062 L 5.8007812 1.4003906 A 1 1 0 0 0 5.140625 1.0097656 A 1 1 0 0 0 4.9453125 1.0019531 z M 6.0332031 5.5449219 C 4.5187793 6.9536521 3.4635554 8.8494181 3.1210938 10.984375 C 3.1106889 11.04924 3.1094467 11.11621 3.1132812 11.183594 A 9.5 9.5 0 0 0 3 12.5 A 9.5 9.5 0 0 0 3.0195312 12.771484 A 9.5 9.5 0 0 1 3.1132812 11.683594 C 3.1094467 11.61621 3.1106889 11.54924 3.1210938 11.484375 C 3.4801961 9.2456776 4.6215373 7.2686 6.2558594 5.8417969 L 6.0332031 5.5449219 z M 18.966797 5.5449219 L 18.744141 5.8417969 C 20.394989 7.2827632 21.543581 9.2844323 21.890625 11.550781 C 21.896225 11.587349 21.897431 11.625059 21.894531 11.662109 A 9.5 9.5 0 0 1 21.980469 12.761719 A 9.5 9.5 0 0 0 22 12.5 A 9.5 9.5 0 0 0 21.894531 11.162109 C 21.897446 11.125062 21.896225 11.087353 21.890625 11.050781 C 21.559509 8.8884115 20.497332 6.9682718 18.966797 5.5449219 z"/>
  <g transform="matrix(0.57687, 0, 0, 0.57687, -1.552149, 10.399712)" style="">
    <g transform="matrix(1, 0, 0, 1, 0.124366, -0.456008)">
      <path style="opacity: 0.2; stroke-width: 1;" d="M 24.21 3.845 C 23.658 3.853 23.217 4.305 23.224 4.855 L 23.224 10.835 C 23.213 11.602 24.04 12.093 24.712 11.719 C 25.033 11.54 25.23 11.201 25.224 10.835 L 25.224 4.855 C 25.232 4.294 24.773 3.837 24.21 3.845 Z M 20.853 5.846 C 20.662 5.853 20.477 5.914 20.32 6.023 C 17.773 7.736 16.636 10.923 17.523 13.864 C 18.41 16.805 21.118 18.829 24.187 18.845 C 27.256 18.862 29.986 16.866 30.904 13.934 C 31.822 11.003 30.719 7.805 28.189 6.065 C 27.571 5.606 26.688 5.988 26.599 6.753 C 26.555 7.135 26.733 7.508 27.056 7.714 C 28.869 8.96 29.654 11.235 28.996 13.336 C 28.338 15.436 26.397 16.855 24.198 16.843 C 21.999 16.832 20.074 15.393 19.438 13.286 C 18.803 11.178 19.61 8.912 21.435 7.684 C 22.079 7.262 22.025 6.3 21.338 5.953 C 21.188 5.877 21.021 5.841 20.853 5.846 Z"/>
      <path style="fill: rgb(255, 255, 255); stroke-width: 1;" d="M 24.21 3.305 C 23.658 3.313 23.217 3.764 23.224 4.314 L 23.224 10.294 C 23.213 11.061 24.04 11.552 24.712 11.178 C 25.033 10.999 25.23 10.66 25.224 10.294 L 25.224 4.314 C 25.232 3.753 24.773 3.296 24.21 3.305 Z M 20.853 5.306 C 20.662 5.312 20.477 5.374 20.32 5.482 C 17.773 7.196 16.636 10.382 17.523 13.323 C 18.41 16.264 21.118 18.288 24.187 18.305 C 27.256 18.321 29.986 16.325 30.904 13.393 C 31.822 10.462 30.719 7.264 28.189 5.524 C 27.571 5.065 26.688 5.447 26.599 6.212 C 26.555 6.594 26.733 6.967 27.056 7.173 C 28.869 8.42 29.654 10.694 28.996 12.795 C 28.338 14.895 26.397 16.314 24.198 16.303 C 21.999 16.291 20.074 14.852 19.438 12.745 C 18.803 10.638 19.61 8.371 21.435 7.143 C 22.079 6.721 22.025 5.76 21.338 5.412 C 21.188 5.336 21.021 5.3 20.853 5.306 Z"/>
    </g>
  </g>
</svg>