<?xml version="1.0" encoding="UTF-8" standalone="no"?>
<svg
   height="16px"
   viewBox="0 0 16 16"
   width="16px"
   version="1.1"
   id="svg8"
   sodipodi:docname="fullscreen.svg"
   inkscape:version="1.1.2 (0a00cf5339, 2022-02-04)"
   xmlns:inkscape="http://www.inkscape.org/namespaces/inkscape"
   xmlns:sodipodi="http://sodipodi.sourceforge.net/DTD/sodipodi-0.dtd"
   xmlns="http://www.w3.org/2000/svg"
   xmlns:svg="http://www.w3.org/2000/svg">
  <defs
     id="defs12" />
  <sodipodi:namedview
     id="namedview10"
     pagecolor="#ffffff"
     bordercolor="#666666"
     borderopacity="1.0"
     inkscape:pageshadow="2"
     inkscape:pageopacity="0.0"
     inkscape:pagecheckerboard="0"
     showgrid="false"
     inkscape:zoom="54.5625"
     inkscape:cx="8"
     inkscape:cy="7.9908362"
     inkscape:window-width="2560"
     inkscape:window-height="1371"
     inkscape:window-x="0"
     inkscape:window-y="32"
     inkscape:window-maximized="1"
     inkscape:current-layer="g6" />
  <g
     fill="#2e3436"
     id="g6">
    <path
       d="m 1 9 c -0.550781 0 -1 0.449219 -1 1 v 6 h 6 c 0.550781 0 1 -0.449219 1 -1 s -0.449219 -1 -1 -1 h -2.585938 l 3.292969 -3.292969 c 0.390625 -0.390625 0.390625 -1.023437 0 -1.414062 c -0.1875 -0.1875 -0.441406 -0.292969 -0.707031 -0.292969 s -0.519531 0.105469 -0.707031 0.292969 l -3.292969 3.292969 v -2.585938 c 0 -0.550781 -0.449219 -1 -1 -1 z m 0 0"
       id="path2"
       style="fill:#ffffff" />
    <path
       d="m 15 7 c 0.550781 0 1 -0.449219 1 -1 v -6 h -6 c -0.550781 0 -1 0.449219 -1 1 s 0.449219 1 1 1 h 2.585938 l -3.292969 3.292969 c -0.390625 0.390625 -0.390625 1.023437 0 1.414062 c 0.1875 0.1875 0.441406 0.292969 0.707031 0.292969 s 0.519531 -0.105469 0.707031 -0.292969 l 3.292969 -3.292969 v 2.585938 c 0 0.550781 0.449219 1 1 1 z m 0 0"
       id="path4"
       style="fill:#ffffff" />
  </g>
</svg>
