<?xml version="1.0" encoding="UTF-8"?>
<svg height="16px" viewBox="0 0 16 16" width="16px" xmlns="http://www.w3.org/2000/svg">
  <path d="m 5.950585,9.882965 c 0.603381,0 1.269181,-0.374512 1.414825,-1.144343 l 0.249675,-1.3316 c 0.249674,-1.394018 -0.790638,-2.43433 -2.496749,-3.016905 -0.9987,-0.353706 -1.976593,-0.49935 -2.975293,-0.49935 -0.312094,0 -0.395319,0.104031 -0.395319,0.312094 0,0.478543 0.249675,0.83225 0.728219,0.915475 0.790637,0.124837 1.373212,0.270481 2.018205,0.582574 0.249675,0.124838 0.353706,0.291288 0.291288,0.540963 l -0.312094,1.810143 c -0.16645,1.040312 0.540962,1.830949 1.477243,1.830949 z m 0,-0.707412 c -0.436931,0 -0.769831,-0.3329 -0.769831,-0.769831 0,-0.436931 0.353706,-0.790637 0.769831,-0.790637 0.436931,0 0.769831,0.353706 0.769831,0.790637 0,0.436931 -0.3329,0.769831 -0.769831,0.769831 z m 0,-0.3329 c 0.249675,0 0.436931,-0.187256 0.436931,-0.436931 0,-0.249675 -0.187256,-0.457738 -0.436931,-0.457738 -0.249675,0 -0.436931,0.208063 -0.436931,0.457738 -0.020806,0.249675 0.187256,0.436931 0.436931,0.436931 z m 0,1.498049 c -1.248374,0 -2.122236,-1.081924 -1.914174,-2.371911 l 0.187256,-1.102731 c -0.9987,0.249675 -1.706112,0.686606 -2.018205,1.331599 0.270481,1.185956 0.686606,2.267881 1.289987,3.328999 0.291287,0.145644 0.603381,0.208062 1.019505,0.208062 1.581275,0 2.996099,-0.769831 3.079324,-2.309492 -0.312093,0.561768 -0.936281,0.915474 -1.643693,0.915474 z m 4.140442,-0.457737 c 0.936281,0 1.622887,-0.811444 1.456437,-1.830949 l -0.312093,-1.83095 c -0.04161,-0.249675 0.04161,-0.416125 0.312093,-0.540962 0.624187,-0.291287 1.227569,-0.457737 2.018206,-0.582575 0.478543,-0.062418 0.728218,-0.436931 0.728218,-0.915474 0,-0.208063 -0.104031,-0.312094 -0.395318,-0.312094 -0.9987,0 -1.976593,0.16645 -2.975293,0.49935 -1.685306,0.582575 -2.746424,1.622887 -2.496749,3.016905 l 0.249675,1.331599 c 0.124837,0.811444 0.790637,1.16515 1.414824,1.16515 z m 0,-0.707412 c -0.436931,0 -0.790637,-0.3329 -0.790637,-0.769831 0,-0.436931 0.353706,-0.790637 0.790637,-0.790637 0.436931,0 0.769831,0.353706 0.769831,0.790637 0,0.436931 -0.353706,0.769831 -0.769831,0.769831 z m 0,-0.3329 c 0.249675,0 0.436931,-0.187256 0.436931,-0.436931 0,-0.249675 -0.187256,-0.457738 -0.436931,-0.457738 -0.249675,0 -0.457737,0.208063 -0.457737,0.457738 0,0.249675 0.187256,0.436931 0.457737,0.436931 z m 0,1.498049 c -0.707412,0 -1.331599,-0.353706 -1.643693,-0.936281 0.104031,1.539662 1.49805,2.309493 3.079324,2.309493 0.416125,0 0.728218,-0.04161 1.019506,-0.208062 0.603381,-1.040312 1.019506,-2.143043 1.289987,-3.328999 -0.312094,-0.644993 -1.019506,-1.061118 -2.018206,-1.331599 l 0.187257,1.10273 c 0.187256,1.310794 -0.686606,2.392718 -1.914175,2.392718 z m -10.091027,-0.187256 c 0,1.185956 0.790637,1.976593 1.976593,1.976593 0.457737,0 0.894668,-0.16645 1.144343,-0.3329 -0.644993,-1.102731 -1.102731,-2.26788 -1.394018,-3.537061 -0.853056,0.083225 -1.726918,0.790637 -1.726918,1.893368 z m 16,0 c 0,-1.081925 -0.853056,-1.810143 -1.726918,-1.893368 -0.291287,1.248375 -0.749025,2.43433 -1.394018,3.537061 0.249675,0.187256 0.686606,0.3329 1.144343,0.3329 1.206762,0 1.976593,-0.790637 1.976593,-1.976593 z m -10.049415,-0.977893 c -0.436931,0 -0.769831,-0.3329 -0.769831,-0.769831 0,-0.436931 0.353706,-0.790637 0.769831,-0.790637 0.436931,0 0.769831,0.353706 0.769831,0.790637 0,0.436931 -0.3329,0.769831 -0.769831,0.769831 z m 0,-0.3329 c 0.249675,0 0.436931,-0.187256 0.436931,-0.436931 0,-0.249675 -0.187256,-0.457738 -0.436931,-0.457738 -0.249675,0 -0.436931,0.208063 -0.436931,0.457738 -0.020806,0.249675 0.187256,0.436931 0.436931,0.436931 z m 4.140442,0.3329 c -0.436931,0 -0.790637,-0.3329 -0.790637,-0.769831 0,-0.436931 0.353706,-0.790637 0.790637,-0.790637 0.436931,0 0.769831,0.353706 0.769831,0.790637 0,0.436931 -0.353706,0.769831 -0.769831,0.769831 z m 0,-0.3329 c 0.249675,0 0.436931,-0.187256 0.436931,-0.436931 0,-0.249675 -0.187256,-0.457738 -0.436931,-0.457738 -0.249675,0 -0.457737,0.208063 -0.457737,0.457738 0,0.249675 0.187256,0.436931 0.457737,0.436931 z" fill="#2e3434"/>
</svg>
