<?xml version="1.0" encoding="UTF-8"?>
<svg height="16px" viewBox="0 0 16 16" width="16px" xmlns="http://www.w3.org/2000/svg">
    <path d="m 6.6777344,1.5 v 2.734375 c -1.6004197,0.5608759 -2.6733974,2.0697753 -2.6777344,3.765625 0.00434,1.6958497 1.0773147,3.204749 2.6777344,3.765625 v 2.734375 h 2.6445312 v -2.734375 c 1.6004194,-0.560876 2.6733974,-2.0697753 2.6777344,-3.765625 -0.0043,-1.6958497 -1.077315,-3.2047491 -2.6777344,-3.765625 v -2.734375 z m 1.3222656,3.8613281 c 1.4573509,-1.271e-4 2.638799,1.181321 2.638672,2.6386719 1.27e-4,1.4573509 -1.1813211,2.638799 -2.638672,2.638672 -1.4573509,1.27e-4 -2.638799,-1.1813211 -2.6386719,-2.638672 -1.27e-4,-1.4573509 1.181321,-2.6387989 2.6386719,-2.6386719 z" fill="#2e3436"/>
</svg>
