<?xml version="1.0" encoding="UTF-8"?>
<svg height="16px" viewBox="0 0 16 16" width="16px" xmlns="http://www.w3.org/2000/svg">
  <path d="M 7.3998384,1.416312 3.7499192,5.1790276 H 1.0087554 c 0,0 -0.9087554,0.8395136 -0.9087554,2.8220365 0,1.9825229 0.9087554,2.8199079 0.9087554,2.8199079 h 2.7411638 l 3.6499192,3.762716 z M 12.018103,1.7100081 C 11.908137,1.7094109 11.79717,1.7315968 11.692484,1.7802397 11.416352,1.9099543 11.23917,2.1907381 11.23917,2.4995824 V 6.6879445 L 9.417403,5.0704877 C 9.0957572,4.7832629 8.607819,4.813344 8.3256196,5.1407194 8.0434208,5.4711822 8.0732983,5.9686882 8.3979796,6.2559132 L 10.392134,8.0351158 8.3979796,9.8143184 c -0.3246815,0.2872256 -0.354559,0.7835626 -0.07236,1.1109376 0.2821995,0.330463 0.7701373,0.361718 1.0917834,0.07449 L 11.23917,9.3822868 v 4.1862342 c 0,0.308845 0.177182,0.589628 0.453314,0.719343 0.279163,0.126625 0.604558,0.08135 0.832139,-0.125566 l 3.107219,-2.766703 C 15.801769,11.247351 15.9,11.030362 15.9,10.801818 c 0,-0.228545 -0.09823,-0.445531 -0.268158,-0.593777 L 13.192888,8.0351158 15.631842,5.860062 C 15.801769,5.7118167 15.9,5.4969577 15.9,5.2684133 15.9,5.039869 15.801768,4.8228818 15.631842,4.6746364 L 12.524623,1.9079337 C 12.382385,1.7786051 12.201382,1.7110034 12.018103,1.7100081 Z m 0.774677,2.5325971 1.151374,1.0258081 -1.151374,1.0236799 z m 0,5.5334051 1.151374,1.0258077 -1.151374,1.025809 z" fill="#2e3436"/>
</svg>
