<?xml version="1.0" encoding="UTF-8"?>
<svg height="16px" viewBox="0 0 16 16" width="16px" xmlns="http://www.w3.org/2000/svg">
    <path d="M 11.085183,2.1941193 V 7.3788665 L 3.6998544,7.3706757 C 2.9923723,7.3701592 2.4316248,7.4369043 1.9606843,7.613668 C 1.5070241,7.7758404 1.1265726,8.0920828 0.8876957,8.5091904 C 0.5746531,9.0730241 0.51910117,9.7837644 0.49999997,10.586912 C 0.51910632,11.39002 0.57466145,12.09808 0.8876957,12.661903 C 1.1265513,13.07901 1.5070025,13.397984 1.9606843,13.560155 C 2.4316248,13.73692 2.9923507,13.799908 3.6998544,13.800418 L 12.302876,13.805878 C 13.009276,13.806395 13.568379,13.741308 14.039315,13.565616 C 14.492978,13.403446 14.876159,13.084471 15.115035,12.667364 C 15.427963,12.101513 15.480815,11.391988 15.5,10.586912 C 15.480385,9.7873963 15.426384,9.0802372 15.115035,8.5173812 C 14.876182,8.1002731 14.493004,7.7813009 14.039315,7.6191286 C 13.842845,7.5458127 13.629159,7.4932401 13.397707,7.4553135 V 2.1941193 Z M 11.216235,10.586912 H 13.359482 V 11.657171 H 11.216235 Z" fill="#2e3434"/>
</svg>
