<?xml version="1.0" encoding="UTF-8"?>
<svg height="16px" viewBox="0 0 16 16" width="16px" xmlns="http://www.w3.org/2000/svg">
  <path d="m 4.8133858,2.8908016 c -1.7980337,-0.017802 -3.9343114,1.7802315 -3.9343114,3.5070559 0,1.4419874 1.4419874,2.5635332 2.5991378,2.5635332 1.6200106,0 3.8452999,-1.8870453 3.8452999,-3.4358466 0,-1.5131967 -1.1749528,-2.6169401 -2.5101263,-2.6347425 z m -1.8870453,5.269485 c -0.3204416,0 -0.8367087,-0.4094532 -1.1393481,-0.907918 -0.3026393,-0.5162671 -0.3026393,-0.9257203 0.035605,-0.9257203 0.3204417,0 0.8367088,0.4094532 1.1393481,0.9257203 0.2848371,0.4984648 0.2848371,0.907918 -0.035605,0.907918 z m 1.6200106,-2.5991378 c -0.1780232,-0.2670348 -0.1246162,-0.6052787 0.1424185,-0.8011042 l 0.8189064,-0.5874763 c 0.2492324,-0.1780232 0.6052787,-0.1246162 0.7833019,0.1424185 0.1958254,0.2492324 0.1424185,0.5874763 -0.1246162,0.7833018 l -0.8189065,0.569674 c -0.2670347,0.2136278 -0.623081,0.1424186 -0.8011041,-0.1068138 z m 0.5518717,7.5481802 h 0.7298949 c 0.3560463,0 0.6052787,-0.178023 0.6052787,-0.534069 v -4.3615665 c -0.5696741,0.5162671 -1.246162,0.9257204 -1.9226499,1.1393481 v 3.2222184 c -0.017802,0.356046 0.2136277,0.534069 0.5874763,0.534069 z m 6.0883912,-10.2185274 c -1.3529757,0.017802 -2.5101261,1.1215458 -2.5101261,2.6347425 0,1.5666037 2.2252891,3.4358466 3.8453001,3.4358466 1.15715,0 2.599138,-1.1215458 2.599138,-2.5635332 0,-1.7268244 -2.136278,-3.5248582 -3.934312,-3.5070559 z m 1.887045,5.269485 c -0.320441,0 -0.338243,-0.4094532 -0.0178,-0.907918 0.30264,-0.5162671 0.818907,-0.9257203 1.139348,-0.9257203 0.320442,0 0.338244,0.4094532 0.03561,0.9257203 -0.320442,0.4984648 -0.818907,0.907918 -1.157151,0.907918 z m -1.62001,-2.5991378 c -0.178023,0.2492324 -0.53407,0.3204416 -0.801104,0.1246162 l -0.8189067,-0.5696741 c -0.2670347,-0.1958254 -0.3204416,-0.5340694 -0.1246162,-0.7833018 0.1780232,-0.2670347 0.5340699,-0.3204417 0.7833019,-0.1424185 l 0.818906,0.5874763 c 0.267035,0.1602209 0.320442,0.5162671 0.142419,0.7833019 z m -0.551872,7.5481802 c 0.373849,0 0.605279,-0.178023 0.605279,-0.534069 v -3.2222184 c -0.676488,-0.2136277 -1.352976,-0.623081 -1.9226501,-1.1393481 v 4.3615665 c 0,0.356046 0.2314301,0.534069 0.6052791,0.534069 z" fill="#2e3434"/>
</svg>
