<svg height="16" viewBox="0 0 16 16" width="16" xmlns="http://www.w3.org/2000/svg">
  <path d="m 4.7788278,4.5191486 c -0.4651883,-0.00189 -0.910484,0.273877 -1.1067498,0.7418959 l -0.8657414,1.9925427 c -0.2616884,0.6038955 0.020445,1.308599 0.62434,1.5702873 0.6038955,0.2616885 1.3082063,-0.040104 1.5698941,-0.6439988 l 0.8857935,-1.9929357 c 0.2616875,-0.6038955 -0.019973,-1.3085992 -0.643999,-1.5702874 -0.1509742,-0.065422 -0.3084748,-0.096875 -0.4635374,-0.097504 z m 6.4596442,0 c -0.15349,6.29e-4 -0.309418,0.032082 -0.460393,0.097504 -0.603895,0.2616882 -0.906079,0.9865217 -0.644391,1.5702874 l 0.885793,1.9929357 c 0.241558,0.6038951 0.925817,0.9056873 1.549843,0.6439988 0.603895,-0.2616883 0.906079,-0.9663918 0.644391,-1.5702873 l -0.865742,-1.9925427 c -0.211363,-0.4680189 -0.649031,-0.7437831 -1.109501,-0.7418959 z m -4.8689129,1.5266464 c -0.02013,0.1006491 -0.060389,0.2016134 -0.1006487,0.3223924 l -0.8857936,1.9925427 c -0.3623371,0.8051942 -1.3083636,1.1878975 -2.1336876,0.8456906 -0.8051936,-0.3623373 -1.1877406,-1.2482888 -0.8857927,-2.0534828 -0.4025973,0.4831163 -0.4831954,1.2081074 -0.1812475,2.0334309 0.5435058,1.5097392 1.9326262,1.8114532 3.2813264,1.2679462 l 0.8252458,-0.321999 c 1.1272716,-0.4227271 1.6505702,-1.4696395 1.3284926,-2.5767807 -0.2214278,-0.7448047 -0.7849076,-1.1071433 -1.2478947,-1.5097403 z m 3.2809339,0.020444 c -0.503247,0.3824671 -1.046518,0.7444913 -1.267947,1.489296 -0.3220774,1.1071412 0.201221,2.1539751 1.328493,2.596832 l 0.825246,0.322 c 1.368829,0.523376 2.73782,0.241793 3.281327,-1.2679466 0.301947,-0.825324 0.201219,-1.549922 -0.181248,-2.0330385 0.301947,0.805194 -0.0806,1.690752 -0.885793,2.0530893 -0.805194,0.3422079 -1.751299,-0.040104 -2.113637,-0.8452971 l -0.885793,-1.9929356 c -0.040259,-0.1006495 -0.080519,-0.2012203 -0.100648,-0.3219995 z m 4.690416,1.6103896 c 0.100649,0.5636358 0.06055,1.1069859 -0.140751,1.6504923 -0.301948,0.8454541 -0.885715,1.4293791 -1.61039,1.6709371 0.342207,0.301948 0.764778,0.462751 1.247895,0.462751 1.046752,0 1.912337,-0.865507 1.912337,-1.9323896 0,-0.8857134 -0.603897,-1.6303624 -1.409091,-1.8517908 z m -12.6818182,0.020051 c -0.8051941,0.2214283 -1.4090908,0.9660779 -1.4090908,1.8517902 0,1.0668832 0.8454556,1.9323902 1.9123378,1.9323902 0.4831166,0 0.925817,-0.180934 1.2478946,-0.462752 -0.7246748,-0.261687 -1.288312,-0.825404 -1.6103895,-1.6909875 -0.2012986,-0.5636358 -0.2414014,-1.1070648 -0.1407521,-1.6304409 z" fill="#2e3434"/>
</svg>
