<?xml version="1.0" encoding="UTF-8"?>
<svg height="16px" viewBox="0 0 16 16" width="16px" xmlns="http://www.w3.org/2000/svg">
    <path d="M 4 0 C 2.667969 0 1.7265617 0.81250025 1.3554688 1.5507812 C 0.98437475 2.2929693 1 3 1 3 L 1 6 L 3 6 L 3 3 C 3 2.445312 3.445312 2 4 2 L 12 2 C 12.554688 2 13 2.445312 13 3 L 13 6 L 15 6 L 15 3 C 15 1.667969 14.1875 0.72656175 13.449219 0.35546875 C 12.707031 -0.01562525 12 0 12 0 L 4 0 z M 4 3 L 4 6 L 12 6 L 12 4 L 4 3 z M 0 7 L 0 9 L 16 9 L 16 7 L 0 7 z M 1 10 L 1 13 C 1 13 0.98437475 13.707031 1.3554688 14.449219 C 1.7265617 15.1875 2.667969 16 4 16 L 12 16 C 13.332031 16 14.273438 15.1875 14.644531 14.449219 C 15.015625 13.707031 15 13 15 13 L 15 10 L 13 10 L 13 13 C 13 13.554688 12.554688 14 12 14 L 4 14 C 3.445312 14 3 13.554688 3 13 L 3 10 L 1 10 z" fill="#2e3434"/>
</svg>
