<?xml version="1.0" encoding="UTF-8"?>
<svg height="16px" viewBox="0 0 16 16" width="16px" xmlns="http://www.w3.org/2000/svg">
    <path d="m 6.6757812,1.4003906 v 3 h -0.2070312 c -0.7750992,0 -1.4003906,0.6233384 -1.4003906,1.3984375 v 4.4023439 c 0,0.775099 0.6252914,1.398437 1.4003906,1.398437 h 0.2070312 v 3 h 2.6464844 v -3 h 0.2089844 c 0.775099,0 1.400391,-0.623338 1.400391,-1.398437 v -4.4023439 c 0,-0.7750991 -0.625292,-1.3984375 -1.400391,-1.3984375 h -0.2089844 v -3 z m 0.1054688,4.1289063 h 2.4375 c 0.3494882,0 0.6328125,0.2813711 0.6328125,0.6308593 v 3.6796878 c 0,0.349488 -0.2833243,0.630859 -0.6328125,0.630859 h -2.4375 c -0.3494882,0 -0.6328125,-0.281371 -0.6328125,-0.630859 v -3.6796878 c 0,-0.3494882 0.2833243,-0.6308593 0.6328125,-0.6308593 z" fill="#2e3436"/>
</svg>
