<?xml version="1.0" encoding="UTF-8"?>
<svg xmlns="http://www.w3.org/2000/svg" height="16px" viewBox="0 0 16 16" width="16px"><path d="m 4.6666662,0.5 a 1.6666666,1.6666666 0 0 0 -1.6666666,1.6666666 v 11.6666674 a 1.6666666,1.6666666 0 0 0 1.6666666,1.666666 h 6.6666658 a 1.6666666,1.6666666 0 0 0 1.666668,-1.666666 v -11.6666674 a 1.6666666,1.6666666 0 0 0 -1.666668,-1.6666666 z m 3.3333334,1.6666666 a 1.6666666,1.6666666 0 0 1 1.6666668,1.6666668 1.6666666,1.6666666 0 0 1 -1.6666668,1.6666666 1.6666666,1.6666666 0 0 1 -1.6666667,-1.6666666 1.6666666,1.6666666 0 0 1 1.6666667,-1.6666668 z m 0,5.0000001 a 3.3333334,3.3333334 0 0 1 3.3333324,3.3333333 3.3333334,3.3333334 0 0 1 -3.3333324,3.333334 3.3333334,3.3333334 0 0 1 -3.3333334,-3.333334 3.3333334,3.3333334 0 0 1 3.3333334,-3.3333333 z m 0,1.6666666 a 1.6666666,1.6666666 0 0 0 -1.6666667,1.6666667 1.6666666,1.6666666 0 0 0 1.6666667,1.666666 1.6666666,1.6666666 0 0 0 1.6666668,-1.666666 1.6666666,1.6666666 0 0 0 -1.6666668,-1.6666667 z" fill="#222222"/></svg>
