<?xml version="1.0" encoding="UTF-8"?>
<svg height="16px" viewBox="0 0 16 16" width="16px" xmlns="http://www.w3.org/2000/svg">
  <path d="m 5,0 c -1.644531,0 -3,1.355469 -3,3 v 10 c 0,1.644531 1.355469,3 3,3 h 6 c 1.644531,0 3,-1.355469 3,-3 v -10 c 0,-1.644531 -1.355469,-3 -3,-3 z m 0,2 h 1 c 0,0.554688 0.445312,1 1,1 h 2 c 0.554688,0 1,-0.445312 1,-1 h 1 c 0.570312,0 1,0.429688 1,1 v 9 c 0,0.554688 -0.445312,1 -1,1 h -6 c -0.554688,0 -1,-0.445312 -1,-1 v -9 c 0,-0.570312 0.429688,-1 1,-1 z m 2.96875,2.261719 c -0.480697,0 -0.861328,0.375159 -0.861328,0.849609 0,0.468219 0.380631,0.841797 0.861328,0.841797 0.486946,0 0.869141,-0.373596 0.869141,-0.841797 0,-0.474469 -0.382195,-0.849609 -0.869141,-0.849609 z m -0.71875,2.800781 v 4.699219 h 1.480469 v -4.699219 z" fill="#2e3436"/>
</svg>
