<?xml version="1.0" encoding="UTF-8"?>
<svg height="16px" viewBox="0 0 16 16" width="16px" xmlns="http://www.w3.org/2000/svg">
  <path d="m 5,0 c -1.644531,0 -3,1.355469 -3,3 v 10 c 0,1.644531 1.355469,3 3,3 h 6 c 1.644531,0 3,-1.355469 3,-3 v -10 c 0,-1.644531 -1.355469,-3 -3,-3 z m 0,2 h 1 c 0,0.554688 0.445312,1 1,1 h 2 c 0.554688,0 1,-0.445312 1,-1 h 1 c 0.570312,0 1,0.429688 1,1 v 9 c 0,0.554688 -0.445312,1 -1,1 h -6 c -0.554688,0 -1,-0.445312 -1,-1 v -9 c 0,-0.570312 0.429688,-1 1,-1 z m 3.068359,2.9101562 c -0.750768,0 -1.469877,0.2880108 -1.996093,0.8124998 -0.5193019,0.516456 -0.7871097,1.262145 -0.7871098,1.955078 0,0.692934 0.252625,1.403298 0.7558598,1.923829 0.537716,0.555139 1.299847,0.845703 2.083984,0.845703 0.713452,0 1.389114,-0.279922 1.871094,-0.78711 0.473819,-0.499281 0.71875,-1.189864 0.71875,-1.914062 0,-0.304882 -0.02989,-0.486229 -0.03125,-0.494141 l -0.02734,-0.11914 h -2.576172 v 1.091796 h 1.539063 c -0.159797,0.758802 -0.90213,1.158204 -1.507813,1.158204 -0.440704,0 -0.905412,-0.186414 -1.21289,-0.484375 a 1.7311631,1.7311631 0 0 1 -0.515625,-1.222657 c 0,-0.45924 0.205551,-0.91854 0.505859,-1.220703 0.300308,-0.302163 0.75412,-0.470703 1.205078,-0.470703 0.516461,0 0.886977,0.27532 1.025391,0.400391 l 0.77539,-0.771485 c -0.227274,-0.199709 -0.853076,-0.7031248 -1.826176,-0.7031248 z" fill="#2e3436"/>
</svg>
