<?xml version="1.0" encoding="UTF-8"?>
<svg height="16px" viewBox="0 0 16 16" width="16px" xmlns="http://www.w3.org/2000/svg">
    <path d="m 5.2714844,2.837159 c -0.9885584,-0.018307 -2.1048967,0.4760532 -2.8554688,1.5195313 -0.1098398,0.1464532 -0.2007071,0.2932638 -0.3105468,0.53125 1.2631577,0.2196797 2.2890625,1.3547581 2.2890624,2.5996094 0,0.3478261 -0.074979,0.677797 -0.203125,0.9707032 0.7688788,-0.1098398 1.2461876,-0.2932638 1.6855469,-0.53125 0.9702517,-0.5491992 1.7207032,-1.4463226 1.7207031,-2.7460938 0,-1.4828376 -1.0447072,-2.3254434 -2.3261718,-2.3437501 z m 5.4570316,0 c -1.2814662,0.018307 -2.3261722,0.8609125 -2.3261722,2.3437501 0,1.2814646 0.7504507,2.1785881 1.7207032,2.7460938 0.439359,0.2379861 0.916668,0.42141 1.685547,0.53125 -0.128146,-0.2929062 -0.203125,-0.6228771 -0.203125,-0.9707032 0,-1.2448513 1.025904,-2.3616229 2.289062,-2.5996094 -0.09153,-0.2379861 -0.200707,-0.3847966 -0.310547,-0.53125 -0.750572,-1.0251715 -1.848603,-1.5195313 -2.855468,-1.5195313 z m -9.0800785,2.5820313 c -1.0434782,0 -1.6484375,0.8239104 -1.6484375,1.6660157 0,1.263158 1.0795686,2.0859375 2.1230469,2.0859375 0.8970252,0 1.703125,-0.5668889 1.703125,-1.6835938 0,-1.006865 -0.9511897,-2.0683593 -2.1777344,-2.0683594 z m 12.7031245,0 c -1.226545,0 -2.177734,1.0614944 -2.177734,2.0683594 0,1.1350115 0.806099,1.6835938 1.703125,1.6835938 1.043478,0 2.123047,-0.8227795 2.123047,-2.0859375 0,-0.8421053 -0.604959,-1.6660157 -1.648438,-1.6660157 z m -13.4199214,1.5527344 c 0.1630435,-0.00601 0.3817086,0.1451481 0.6425782,0.4609375 0.3295194,0.4393593 0.420619,0.7129219 0.2558593,0.859375 -0.1647597,0.1464531 -0.4392832,0.00113 -0.7871094,-0.4199219 -0.3295194,-0.4210525 -0.420619,-0.6953437 -0.2558594,-0.8417968 0.04119,-0.036613 0.0901835,-0.056592 0.1445313,-0.058594 z m 14.1367184,0.00977 c 0.05435,0.00286 0.103342,0.025216 0.144532,0.066406 0.164759,0.1464531 0.07366,0.4207442 -0.25586,0.8417969 -0.347826,0.402746 -0.622349,0.5487968 -0.787109,0.4023437 -0.164759,-0.1464531 -0.07366,-0.4207443 0.255859,-0.8417969 0.26087,-0.3157895 0.479535,-0.4773312 0.642578,-0.4687497 z m -9.5937496,1.7871094 c -0.4942792,0.1830664 -1.0443184,0.2934649 -1.6484375,0.3300782 v 3.5136717 c 0,0.347826 0.2373828,0.550781 0.6035156,0.550781 h 0.4589844 c 0.3478261,0 0.5859375,-0.184649 0.5859375,-0.550781 z m 5.0507816,0 v 3.8437499 c 0,0.366132 0.238111,0.550781 0.585937,0.550781 h 0.458983 c 0.366136,0 0.603517,-0.184649 0.603517,-0.550781 v -3.5136717 c -0.604119,-0.036613 -1.154158,-0.1470118 -1.648437,-0.3300782 z" fill="#2e3434"/>
</svg>
