<?xml version="1.0" encoding="UTF-8"?>
<svg height="16px" viewBox="0 0 16 16" width="16px" xmlns="http://www.w3.org/2000/svg">
  <path d="m 5,0 c -1.6445309,0 -3,1.3554691 -3,3 v 10 c 0,1.644531 1.3554691,3 3,3 h 6 c 1.644531,0 3,-1.355469 3,-3 v -10 c 0,-1.6445309 -1.355469,-3 -3,-3 z m 0,2 h 1 c 0,0.554688 0.445312,1 1,1 h 2 c 0.554688,0 1,-0.445312 1,-1 h 1 c 0.570312,0 1,0.429688 1,1 v 9 c 0,0.554688 -0.445312,1 -1,1 h -6 c -0.554688,0 -1,-0.445312 -1,-1 v -9 c 0,-0.570312 0.429688,-1 1,-1 z m 3,2.345703 c -1.062001,0 -1.929183,0.349005 -2.087891,1.320313 -0.04296,0.268488 -0.04838,0.507124 0.01367,0.80664 0.261329,1.218305 2.379648,1.57248 2.6875,2.345703 0.05848,0.144377 0.04111,0.331188 0.01367,0.44336 -0.05011,0.198084 -0.185863,0.40039 -0.582031,0.40039 -0.37469,0 -0.601564,-0.214062 -0.601564,-0.541015 v -0.578125 h -1.599608 l -0.0019,0.460937 c 0,1.330477 1.047053,1.732422 2.169921,1.732422 1.079901,0 1.968567,-0.368105 2.109377,-1.363281 0.07278,-0.515474 0.01801,-0.852789 -0.0059,-0.980469 -0.251792,-1.249333 -2.517288,-1.622262 -2.685545,-2.320312 -0.02865,-0.119331 -0.02019,-0.248406 -0.0059,-0.316406 0.04176,-0.189736 0.171446,-0.398438 0.544922,-0.398438 0.348443,0 0.554689,0.215252 0.554689,0.541016 v 0.36914 h 1.48828 v -0.419922 c 0,-1.30065 -1.166876,-1.501953 -2.011719,-1.501953 z" fill="#2e3436"/>
</svg>
