<?xml version="1.0" encoding="UTF-8"?>
<svg height="16px" viewBox="0 0 16 16" width="16px" xmlns="http://www.w3.org/2000/svg">
    <path d="M 6.5 0 C 6.234375 0 5.9804687 0.10546875 5.7929688 0.29296875 L 4.0859375 2 L 3 2 C 1.355469 2 0 3.355469 0 5 L 0 12 C 0 13.644531 1.355469 15 3 15 L 13 15 C 14.644531 15 16 13.644531 16 12 L 16 5 C 16 3.355469 14.644531 2 13 2 L 11.914062 2 L 10.207031 0.29296875 C 10.019531 0.10546875 9.765625 -3.7007434e-17 9.5 0 L 6.5 0 z M 6.9140625 2 L 9.0859375 2 L 10.792969 3.7070312 C 10.980469 3.8945312 11.234375 4 11.5 4 L 13 4 C 13.570312 4 14 4.429688 14 5 L 14 12 C 14 12.570312 13.570312 13 13 13 L 3 13 C 2.429688 13 2 12.570312 2 12 L 2 5 C 2 4.429688 2.429688 4 3 4 L 4.5 4 C 4.765625 4 5.0195312 3.8945313 5.2070312 3.7070312 L 6.9140625 2 z M 8 4 C 5.800781 4 4 5.800781 4 8 C 4 10.199219 5.800781 12 8 12 C 10.199219 12 12 10.199219 12 8 C 12 5.800781 10.199219 4 8 4 z M 8 6 C 9.117188 6 10 6.882812 10 8 C 10 9.117188 9.117188 10 8 10 C 6.882812 10 6 9.117188 6 8 C 6 6.882812 6.882812 6 8 6 z" fill="#2e3434"/>
</svg>
