<?xml version="1.0" encoding="UTF-8"?>
<svg height="16px" viewBox="0 0 16 16" width="16px" xmlns="http://www.w3.org/2000/svg">
    <path d="M 3.9941406 0 C 2.7361406 0.015 1.8155 -0.030234375 1.0625 0.38476562 A 1.88 1.88 0 0 0 0.22460938 1.3828125 C 0.059609375 1.8208125 1.8503717e-17 2.343 0 3 L 0 9 C 0 9.658 0.059609375 10.179188 0.22460938 10.617188 C 0.38860938 11.056188 0.6865 11.407234 1.0625 11.615234 C 1.8155 12.031234 2.7361406 11.985 3.9941406 12 L 6 12 L 6 13 L 10 13 L 10 12 L 12.005859 12 C 13.263859 11.985 14.1845 12.030234 14.9375 11.615234 A 1.88 1.88 0 0 0 15.775391 10.617188 C 15.939391 10.179187 16 9.657 16 9 L 16 3 C 16 2.342 15.940391 1.8208125 15.775391 1.3828125 A 1.88 1.88 0 0 0 14.9375 0.38476562 C 14.1845 -0.031234375 13.263859 0.015 12.005859 0 L 3.9980469 0 L 3.9941406 0 z M 4 1 L 12 1 C 13.259 1.015 14.087125 1.0597188 14.453125 1.2617188 C 14.637125 1.3617188 14.742844 1.474375 14.839844 1.734375 C 14.936844 1.994375 15 2.408 15 3 L 15 9 C 15 9.592 14.936844 10.005625 14.839844 10.265625 C 14.741844 10.525625 14.637125 10.637281 14.453125 10.738281 C 14.087125 10.940281 13.259 10.985 12 11 L 4 11 C 2.741 10.985 1.9099219 10.940281 1.5449219 10.738281 C 1.3619219 10.638281 1.2581563 10.525625 1.1601562 10.265625 C 1.0631563 10.005625 1 9.592 1 9 L 1 3 C 1 2.408 1.0631563 1.994375 1.1601562 1.734375 C 1.2581563 1.474375 1.3619219 1.3627187 1.5449219 1.2617188 C 1.9109219 1.0597188 2.741 1.015 4 1 z M 3 14 L 0 15 L 0 16 L 16 16 L 16 15 L 13 14 L 3 14 z" fill="#2e3434"/>
</svg>
