<?xml version="1.0" encoding="UTF-8"?>
<svg height="16px" viewBox="0 0 16 16" width="16px" xmlns="http://www.w3.org/2000/svg">
    <path d="m 7.03125,0.25 c -0.9687444,0 -0.96875,0.96875 -0.96875,0.96875 v 0.96875 h -0.96875 c 0,0 -0.6853063,-0.015743 -1.4042969,0.34375 -0.7152055,0.3594943 -1.5019531,1.2721026 -1.5019531,2.5625 v 7.75 c 0,0 -0.015743,0.685186 0.34375,1.400391 0.3594942,0.718992 1.2721026,1.505859 2.5625,1.505859 h 5.8125 c 0,0 0.685308,0.01574 1.404297,-0.34375 0.715206,-0.359494 1.501953,-1.272103 1.501953,-2.5625 v -7.75 c 0,-1.2903974 -0.786747,-2.2030057 -1.501953,-2.5625 -0.718989,-0.359495 -1.404297,-0.34375 -1.404297,-0.34375 h -0.96875 v -0.96875 c 0,-0.9687443 -0.96875,-0.96875 -0.96875,-0.96875 z m -1.9199219,5.515625 h 1.4726563 v 4.400391 c 0,0.396971 0.1300732,0.723823 0.3886718,0.982422 0.2585987,0.258598 0.6008829,0.388671 1.0273438,0.388671 0.4287293,0 0.7710135,-0.130073 1.0273438,-0.388671 0.2585986,-0.258599 0.3886718,-0.585451 0.3886718,-0.982422 v -4.400391 h 1.4726564 v 4.525391 c 0,0.508123 -0.120877,0.952891 -0.361328,1.333984 -0.240452,0.381093 -0.5764997,0.679348 -1.0097659,0.892578 -0.4332661,0.210962 -0.9391338,0.316406 -1.5175781,0.316406 -0.5784443,0 -1.084312,-0.105444 -1.5175781,-0.316406 -0.4332662,-0.21323 -0.7693143,-0.511485 -1.0097657,-0.892578 -0.2404513,-0.381093 -0.3613281,-0.825861 -0.3613281,-1.333984 z" fill="#2e3436"/>
</svg>
