<?xml version="1.0" encoding="UTF-8"?>
<svg height="16px" viewBox="0 0 16 16" width="16px" xmlns="http://www.w3.org/2000/svg">
    <path d="M 4 1 C 3.5845 1 3.25 1.3348505 3.25 1.7519531 L 3.25 7.9921875 L 2.4003906 7.9921875 C 1.7891251 7.9921874 1.296875 8.4844375 1.296875 9.0957031 L 1.296875 13.302734 C 1.296875 13.913999 1.7891251 14.40625 2.4003906 14.40625 L 13.599609 14.40625 C 14.210875 14.40625 14.703125 13.913999 14.703125 13.302734 L 14.703125 9.0957031 C 14.703125 8.4844375 14.210875 7.9921875 13.599609 7.9921875 L 12.75 7.9921875 L 12.75 1.7519531 C 12.75 1.3348505 12.4155 1 12 1 C 11.5845 1 11.25 1.3348505 11.25 1.7519531 L 11.25 7.9921875 L 4.75 7.9921875 L 4.75 1.7519531 C 4.75 1.3348505 4.4155 1 4 1 z M 2.8417969 10.449219 L 5.3417969 10.449219 L 5.3417969 11.949219 L 2.8417969 11.949219 L 2.8417969 10.449219 z M 6.8417969 10.449219 L 9.3417969 10.449219 L 9.3417969 11.949219 L 6.8417969 11.949219 L 6.8417969 10.449219 z M 10.841797 10.449219 L 13.341797 10.449219 L 13.341797 11.949219 L 10.841797 11.949219 L 10.841797 10.449219 z" fill="#2e3434"/>
</svg>
