<svg xmlns="http://www.w3.org/2000/svg" width="24" height="24" version="1.1">
 <defs>
  <style id="current-color-scheme" type="text/css">
   .ColorScheme-Text { color:#cdd6f4; } .ColorScheme-Highlight { color:#4285f4; } .ColorScheme-NeutralText { color:#ff9800; } .ColorScheme-PositiveText { color:#4caf50; } .ColorScheme-NegativeText { color:#f44336; }
  </style>
 </defs>
 <g transform="matrix(1,0,0,1,4,4)">
      <path style="fill:currentColor" class="ColorScheme-Text" d="m 1 11 c 0 -0.265625 0.105469 -0.519531 0.292969 -0.707031 l 6 -6 c 0.390625 -0.390625 1.023437 -0.390625 1.414062 0 l 6 6 c 0.1875 0.1875 0.292969 0.441406 0.292969 0.707031 s -0.105469 0.519531 -0.292969 0.707031 c -0.390625 0.390625 -1.023437 0.390625 -1.414062 0 l -5.292969 -5.292969 l -5.292969 5.292969 c -0.390625 0.390625 -1.023437 0.390625 -1.414062 0 c -0.1875 -0.1875 -0.292969 -0.441406 -0.292969 -0.707031 z m 0 0" fill="#cdd6f4"/>
 </g>
</svg>
